<svg xmlns="http://www.w3.org/2000/svg" xmlns:xlink="http://www.w3.org/1999/xlink" width="294" height="278" viewBox="0 0 294 278">
  <defs>
    <linearGradient id="linear-gradient" x1="0.484" y1="0.735" x2="0.507" y2="0.167" gradientUnits="objectBoundingBox">
      <stop offset="0" stop-color="#005559"/>
      <stop offset="1" stop-color="#62bb46"/>
    </linearGradient>
    <linearGradient id="linear-gradient-2" x1="0.5" y1="0.853" x2="0.5" y2="-0.029" xlink:href="#linear-gradient"/>
    <linearGradient id="linear-gradient-3" x1="0.531" y1="0.854" x2="0.493" y2="0.274" xlink:href="#linear-gradient"/>
    <linearGradient id="linear-gradient-4" x1="0.276" y1="0.808" x2="0.852" y2="0.092" xlink:href="#linear-gradient"/>
    <linearGradient id="linear-gradient-5" x1="0.516" y1="0.742" x2="0.493" y2="0.187" xlink:href="#linear-gradient"/>
    <linearGradient id="linear-gradient-6" x1="0.469" y1="0.854" x2="0.507" y2="0.274" xlink:href="#linear-gradient"/>
    <linearGradient id="linear-gradient-7" x1="0.724" y1="0.808" x2="0.148" y2="0.092" xlink:href="#linear-gradient"/>
  </defs>
  <g id="Group_56041" data-name="Group 56041" transform="translate(-2408.468 -2098.926)">
    <rect id="Rectangle_34832" data-name="Rectangle 34832" width="294" height="278" transform="translate(2408.468 2098.926)" fill="#fff"/>
    <g id="Group_56040" data-name="Group 56040">
      <path id="Path_177500" data-name="Path 177500" d="M2656.5,2282.643c-23.448-18.412-55.712-15.427-82.769-3.85C2588.39,2294.552,2632.976,2322.049,2656.5,2282.643Z" fill-rule="evenodd" fill="url(#linear-gradient)"/>
      <path id="Path_177501" data-name="Path 177501" d="M2555.468,2274.838l.03.058c34.466-58.53,59.95-79.863-.03-142.351-59.979,62.488-34.5,83.821-.029,142.351Z" fill-rule="evenodd" fill="url(#linear-gradient-2)"/>
      <path id="Path_177502" data-name="Path 177502" d="M2618.527,2281.994c38.694-16.1,38.008-67.606,35.937-71.22-5,10.24-19.073,17.875-36.8,20.339-31.539,4.383-37.8,20.122-64.464,31.357,0,0,.026.284,7.576,7.87C2573.354,2282.98,2602.775,2288.548,2618.527,2281.994Z" fill-rule="evenodd" fill="url(#linear-gradient-3)"/>
      <path id="Path_177503" data-name="Path 177503" d="M2562.954,2262.914c41.309,3.784,68.424-51.064,63.811-93.568C2585.9,2172.682,2559.759,2226.5,2562.954,2262.914Z" fill-rule="evenodd" fill="url(#linear-gradient-4)"/>
      <path id="Path_177504" data-name="Path 177504" d="M2590.6,2187.763c-19.046,19.592-29.637,50.875-27.673,74.792C2581.448,2232.293,2595.288,2212.092,2590.6,2187.763Z" fill="#03585c" fill-rule="evenodd"/>
      <path id="Path_177505" data-name="Path 177505" d="M2454.442,2282.643c23.448-18.412,55.216-17.7,82.767-3.85C2522.548,2294.552,2477.962,2322.049,2454.442,2282.643Z" fill-rule="evenodd" fill="url(#linear-gradient-5)"/>
      <path id="Path_177506" data-name="Path 177506" d="M2492.408,2281.994c-38.693-16.1-38.007-67.606-35.935-71.22,5,10.24,19.072,17.875,36.8,20.339,31.538,4.383,37.8,20.122,64.463,31.357,0,0-.025.284-7.576,7.87C2537.583,2282.98,2508.162,2288.548,2492.408,2281.994Z" fill-rule="evenodd" fill="url(#linear-gradient-6)"/>
      <path id="Path_177507" data-name="Path 177507" d="M2547.983,2262.914c-41.311,3.784-68.425-51.064-63.812-93.568C2525.037,2172.682,2551.178,2226.5,2547.983,2262.914Z" fill-rule="evenodd" fill="url(#linear-gradient-7)"/>
      <path id="Path_177508" data-name="Path 177508" d="M2547.983,2262.914c-21.251,1.947-38.743-11.623-50.1-31.047,23.812,4.5,32.247,16.065,50.348,26.006C2548.21,2259.583,2548.128,2261.268,2547.983,2262.914Z" fill="#03585c" fill-rule="evenodd"/>
      <path id="Path_177509" data-name="Path 177509" d="M2613.048,2231.867c-23.81,4.5-32.245,16.065-50.348,26.006.028,1.71.11,3.4.254,5.041C2584.205,2264.861,2601.7,2251.291,2613.048,2231.867Z" fill="#03585c" fill-rule="evenodd"/>
      <path id="Path_177510" data-name="Path 177510" d="M2492.408,2281.994a52.15,52.15,0,0,1-16.182-10.569c19.429-5.721,41.284-2.535,60.983,7.368C2522.973,2285.077,2504,2286.815,2492.408,2281.994Z" fill="#03585c" fill-rule="evenodd"/>
      <path id="Path_177511" data-name="Path 177511" d="M2520.338,2187.763c-4.691,24.326,9.152,44.53,27.67,74.792C2549.976,2238.638,2539.385,2207.355,2520.338,2187.763Z" fill="#03585c" fill-rule="evenodd"/>
      <path id="Path_177512" data-name="Path 177512" d="M2634.364,2271.754c-19.479-5.086-41.377-1.2-60.638,7.039,14.236,6.284,33.216,8.022,44.8,3.2A52.212,52.212,0,0,0,2634.364,2271.754Z" fill="#03585c" fill-rule="evenodd"/>
      <path id="Path_177513" data-name="Path 177513" d="M2593.26,2296.32H2510.1c-.257-.211-.512-.427-.83-.74-2.159-2.114-3.792-4.927-3.272-8.189.277-1.738,1.559-2.772,2.079-3.573a20.788,20.788,0,0,0-2.617.691l-6.132.862c-1.192.241-1.353.817-2.642.845a1.352,1.352,0,0,1-.39-1.1c-.851,0-1.5-.163-2.013-.148s-1.18.148-2.044.148c-.015-.749.048-.595-.207-1.106-.911.073-2.019,1.235-2.214,0-.289-1.822,3.107-2.169,4.388-2.214a13.3,13.3,0,0,0,2.939-.557l-1.277-2.657c-.711-1.723.823-4.054,1.052-6.249.166-1.61-.112-.6.4-1.6l.515-1.485c1.684,0,1.771.376,3.15,2.056l2.625,2.775a15.122,15.122,0,0,0,2.566.961c1.942.821,1.718,2.459,4.763,1.272,1.781-.693,3-1.838,4.607-2.638a84.871,84.871,0,0,0,7.569-6.409c1.919-1.965,5.249-4.391,5.637-4.783a3.482,3.482,0,0,0,.81-2.745c.337-.7.273-3.025.4-4.034a30.507,30.507,0,0,0,.181-4.118c.347-.655.293-7.156.138-8.083-.217-1.259-.237-2.656-.4-3.92-.148-1.172-.507-2.716-.6-3.906a33.947,33.947,0,0,1,.892-7.455,11.861,11.861,0,0,1,1.384-2.8l1.912-2.484c1.612-.785.384-.673,3.7-1.606a93,93,0,0,0,9.776-3.437l2.081-.67c.78-.363.566-.885.531-2.016-.2-6.623-.393-2.656-1.341-6.914-.367-1.638-.257-.716-1.141-1.471-.518-.443-.444-1.365-.7-2.112a9.692,9.692,0,0,1-.316-.994c-.12-.548-.1-.665-.23-1.083l-.489-1.789a.71.71,0,0,1,.026-.107c.191-1.437,1.157.568,1.116-1.937l-.089-2.966c.15-2.946-.186-3.6.766-5.958a8.366,8.366,0,0,1,7.7-5.655,9,9,0,0,1,5.609,1.035,10.567,10.567,0,0,1,3.657,3.231c2.771,4.126,1.443,6.2,1.547,11.592.749,0,.591-.061,1.108.184a3.384,3.384,0,0,1-.354,2.006,22.4,22.4,0,0,1-1.068,4.018c-.44,1.073-1,.421-1.48,1.081a15.209,15.209,0,0,0-.418,2.125c-.978,3.812-.938-.537-.8,6.817l16.511,4.8.217.153c.107.071.26.165.336.219a3.037,3.037,0,0,1,.528.4,5.275,5.275,0,0,1,.953,1.1,11.283,11.283,0,0,1,1.264,2.849,26.275,26.275,0,0,1,1.595,10.392c-.079,1.246-.13,2.37-.1,3.884.028,1.35.057,2.7.079,4.057.031,1.572.235,2.484.26,3.889a35.126,35.126,0,0,0,.38,4.676c.135.838.212,1.569.308,2.319.109.874.334,1.45.413,2.227a11.368,11.368,0,0,1,.415,1.254c.938,2.51,1.97,1.87,4.447,4.492.4.423.446.6.846,1.02,3.642,3.85,1.843,2.757,6.371,6.1a12.721,12.721,0,0,0,2.217,1.531c2.016,1.5,5.25-.468,6.7-1.059,1.995-.815,3.3-.53,5.5-3.474,1.183-1.583,3.275-2.75,3.678-.963.117.52-.24.922-.268,1.774a34.071,34.071,0,0,0,.271,4.248c.361,4.452.213,1.827-.293,3.873,6.431-1.505,5.552,2.06,4.558,1.85-1.536-.319-.534-.617-3.745.577-.628.234-1.255.5-1.938.815l-2.061.874c-1.35.5-.68,0-2.013.749-1.532.857-3.744-1.511-6.361-1.727.1,2.491,2.016,1.8.163,7.218a16.664,16.664,0,0,1-4.8,7.412c-.29.238-.3.29-.595.5-1.211.867-2.136.541-3.546,1.046a7.56,7.56,0,0,0-1.416.781l-.26.153Zm-94.736-19.88a9.256,9.256,0,0,0,.607,2.769c1.236-.106,1.8-2.319,1.791-2.769a5.12,5.12,0,0,0-.726-1.517c-.362-.57-.492-.886-1.17-1.064a6.816,6.816,0,0,0-.5,2.581Zm112.462-2.951a4.03,4.03,0,0,0,.775,2.029,8.009,8.009,0,0,0,1.266-2.018,13.24,13.24,0,0,0,.107-3.331c-.973.262-2.168,2.266-2.148,3.32Zm-88.341,4.8a19.59,19.59,0,0,0-2.607,1.165c-1.145.486-1.986.263-2.618,1.234l10.434.922a24.167,24.167,0,0,1,3.21.4,27.976,27.976,0,0,0,5.4.352c2.029.008,1.175-.423,2.062-3.588,1.244-4.435,2.319-7.712,2.222-12.768.652-1.765.433-7.639-.051-10.183-.137-.731-.066-.787-.718-.96-.284,1.322-.411,2.981-.6,4.3l-.78,4.374c-.62,1.447-.882,4.752-1.9,5.671l-8.9,6.469c-1.635,1.072-4.069,1.883-5.157,2.616Zm55.852,3.505c.938-.219.8-.433,1.427-.951a12.393,12.393,0,0,1,1.427-.953c.584-.346.882-.6,1.455-.925a23.382,23.382,0,0,1,5.576-1.769c6.085-1.279,2.961-.568,7.724-.568-.405-.535-4.1-1.832-5.423-2.37-.713-.29-1.093-.5-1.809-.79a34.576,34.576,0,0,1-6.519-4.075c-1.341-1.151-3.15-2.244-4.021-3.8a7.9,7.9,0,0,1-.668-1.952c-.392-1.475-.711-2.64-1.111-4.133-.165-.63-.405-1.4-.533-2.09-.178-.966-.155-1.539-.8-2,.05,2.622-.136,4.579-.051,7.2.035,1.175.232,2.069.257,3.5.021,1.088-.035,2.632.1,3.664.125.961.326,2.3.405,3.346A45.876,45.876,0,0,0,2578.5,2281.79Z" fill="#fff" fill-rule="evenodd"/>
    </g>
  </g>
</svg>
