<svg xmlns="http://www.w3.org/2000/svg" xmlns:xlink="http://www.w3.org/1999/xlink" width="294.442" height="278" viewBox="0 0 294.442 278">
  <defs>
    <linearGradient id="linear-gradient" x1="0.5" y1="1.483" x2="0.5" y2="-0.069" gradientUnits="objectBoundingBox">
      <stop offset="0" stop-color="#639327"/>
      <stop offset="1" stop-color="#aec13e"/>
    </linearGradient>
    <clipPath id="clip-path">
      <rect id="Rectangle_34827" data-name="Rectangle 34827" width="133.899" height="78.104" transform="translate(2177.608 2218.637)" fill="none"/>
    </clipPath>
    <clipPath id="clip-path-2">
      <rect id="Rectangle_34829" data-name="Rectangle 34829" width="133.899" height="78.104" transform="translate(2151.338 2297.337) rotate(180)" fill="none"/>
    </clipPath>
    <clipPath id="clip-path-3">
      <rect id="Rectangle_34830" data-name="Rectangle 34830" width="150.23" height="113.621" transform="translate(2161.651 2263.305)" fill="none"/>
    </clipPath>
    <clipPath id="clip-path-4">
      <rect id="Rectangle_34831" data-name="Rectangle 34831" width="148.654" height="112.429" transform="translate(2166.467 2376.926) rotate(180)" fill="none"/>
    </clipPath>
  </defs>
  <g id="Group_56037" data-name="Group 56037" transform="translate(-2017.439 -2098.926)">
    <rect id="Rectangle_34825" data-name="Rectangle 34825" width="294" height="278" transform="translate(2017.66 2098.926)" fill="#fff"/>
    <g id="Group_56036" data-name="Group 56036">
      <g id="Group_55975" data-name="Group 55975">
        <path id="Path_177363" data-name="Path 177363" d="M2311.507,2296.814c-41.471-3.408-91.057-5.389-144.334-5.389-55.61,0-107.2,2.159-149.734,5.845V2350.4h294.068Z" fill="url(#linear-gradient)"/>
        <g id="Group_55974" data-name="Group 55974">
          <g id="Group_55971" data-name="Group 55971">
            <path id="Path_177364" data-name="Path 177364" d="M2057.49,2307.7a5.351,5.351,0,0,0,3.95.039,5.448,5.448,0,0,0-2.89-2.729,5.352,5.352,0,0,0-3.95-.039A5.451,5.451,0,0,0,2057.49,2307.7Z" fill="#bbc145"/>
            <path id="Path_177365" data-name="Path 177365" d="M2132.054,2337a5.375,5.375,0,0,0,2.014-3.378,5.228,5.228,0,0,0-3.747,1.074,5.369,5.369,0,0,0-2.014,3.378A5.234,5.234,0,0,0,2132.054,2337Z" fill="#bbc145"/>
            <path id="Path_177366" data-name="Path 177366" d="M2093.955,2342.283a5.349,5.349,0,0,0,3.949.039,5.448,5.448,0,0,0-2.889-2.729,5.352,5.352,0,0,0-3.95-.039A5.447,5.447,0,0,0,2093.955,2342.283Z" fill="#bbc145"/>
            <path id="Path_177367" data-name="Path 177367" d="M2115.241,2321.852a5.561,5.561,0,0,0-.236,4,5.463,5.463,0,0,0,2.834-2.789,5.565,5.565,0,0,0,.236-4A5.451,5.451,0,0,0,2115.241,2321.852Z" fill="#bbc145"/>
            <path id="Path_177368" data-name="Path 177368" d="M2043.02,2315.668a3.732,3.732,0,0,0,1.829-2.008,3.654,3.654,0,0,0-2.687.232,3.729,3.729,0,0,0-1.829,2.007A3.657,3.657,0,0,0,2043.02,2315.668Z" fill="#bbc145"/>
            <path id="Path_177369" data-name="Path 177369" d="M2028.049,2302.254a1.451,1.451,0,1,0-2.477-1.077A3.667,3.667,0,0,0,2028.049,2302.254Z" fill="#bbc145"/>
            <path id="Path_177370" data-name="Path 177370" d="M2067.153,2325.458a1.451,1.451,0,1,0-2.563-.848A3.681,3.681,0,0,0,2067.153,2325.458Z" fill="#bbc145"/>
            <path id="Path_177371" data-name="Path 177371" d="M2093.619,2315.62a1.451,1.451,0,1,0-2.563-.847A3.674,3.674,0,0,0,2093.619,2315.62Z" fill="#bbc145"/>
            <path id="Path_177372" data-name="Path 177372" d="M2124.042,2303.214a3.73,3.73,0,0,0,1.893-1.946,3.649,3.649,0,0,0-2.692.142,3.725,3.725,0,0,0-1.894,1.945A3.656,3.656,0,0,0,2124.042,2303.214Z" fill="#bbc145"/>
          </g>
          <g id="Group_55972" data-name="Group 55972">
            <path id="Path_177373" data-name="Path 177373" d="M2228.51,2308.04a4.85,4.85,0,0,0,3.58.036,4.942,4.942,0,0,0-2.619-2.474,4.848,4.848,0,0,0-3.58-.035A4.937,4.937,0,0,0,2228.51,2308.04Z" fill="#bbc145"/>
            <path id="Path_177374" data-name="Path 177374" d="M2296.085,2334.591a4.863,4.863,0,0,0,1.825-3.061,4.741,4.741,0,0,0-3.4.973,4.869,4.869,0,0,0-1.826,3.062A4.743,4.743,0,0,0,2296.085,2334.591Z" fill="#bbc145"/>
            <ellipse id="Ellipse_786" data-name="Ellipse 786" cx="1.31" cy="3.344" rx="1.31" ry="3.344" transform="translate(2258.446 2338.114) rotate(-67.867)" fill="#bbc145"/>
            <path id="Path_177375" data-name="Path 177375" d="M2280.848,2320.863a5.041,5.041,0,0,0-.214,3.622,4.939,4.939,0,0,0,2.568-2.527,5.043,5.043,0,0,0,.215-3.623A4.944,4.944,0,0,0,2280.848,2320.863Z" fill="#bbc145"/>
            <path id="Path_177376" data-name="Path 177376" d="M2215.4,2315.259a3.379,3.379,0,0,0,1.657-1.82,3.309,3.309,0,0,0-2.434.21,3.377,3.377,0,0,0-1.658,1.82A3.316,3.316,0,0,0,2215.4,2315.259Z" fill="#bbc145"/>
            <path id="Path_177377" data-name="Path 177377" d="M2201.829,2303.1a1.315,1.315,0,1,0-2.246-.976A3.324,3.324,0,0,0,2201.829,2303.1Z" fill="#bbc145"/>
            <path id="Path_177378" data-name="Path 177378" d="M2237.267,2324.131a1.316,1.316,0,1,0-2.323-.768A3.332,3.332,0,0,0,2237.267,2324.131Z" fill="#bbc145"/>
            <path id="Path_177379" data-name="Path 177379" d="M2261.253,2315.216a1.315,1.315,0,1,0-2.323-.769A3.331,3.331,0,0,0,2261.253,2315.216Z" fill="#bbc145"/>
            <path id="Path_177380" data-name="Path 177380" d="M2288.824,2303.972a3.379,3.379,0,0,0,1.716-1.763,3.3,3.3,0,0,0-2.44.128,3.37,3.37,0,0,0-1.716,1.763A3.315,3.315,0,0,0,2288.824,2303.972Z" fill="#bbc145"/>
          </g>
          <g id="Group_55973" data-name="Group 55973">
            <path id="Path_177381" data-name="Path 177381" d="M2213.935,2345.985a4.61,4.61,0,0,0-3.4-.033,4.7,4.7,0,0,0,2.491,2.352,4.612,4.612,0,0,0,3.4.034A4.7,4.7,0,0,0,2213.935,2345.985Z" fill="#bbc145"/>
            <path id="Path_177382" data-name="Path 177382" d="M2149.677,2320.738a4.621,4.621,0,0,0-1.736,2.911,4.508,4.508,0,0,0,3.229-.926,4.628,4.628,0,0,0,1.736-2.911A4.508,4.508,0,0,0,2149.677,2320.738Z" fill="#bbc145"/>
            <path id="Path_177383" data-name="Path 177383" d="M2182.51,2316.184a4.61,4.61,0,0,0-3.4-.033,4.7,4.7,0,0,0,2.491,2.352,4.612,4.612,0,0,0,3.4.034A4.7,4.7,0,0,0,2182.51,2316.184Z" fill="#bbc145"/>
            <path id="Path_177384" data-name="Path 177384" d="M2164.166,2333.792a4.794,4.794,0,0,0,.2-3.444,4.7,4.7,0,0,0-2.442,2.4,4.8,4.8,0,0,0-.2,3.445A4.7,4.7,0,0,0,2164.166,2333.792Z" fill="#bbc145"/>
            <path id="Path_177385" data-name="Path 177385" d="M2226.406,2339.121a3.216,3.216,0,0,0-1.577,1.731,3.152,3.152,0,0,0,2.316-.2,3.214,3.214,0,0,0,1.576-1.73A3.151,3.151,0,0,0,2226.406,2339.121Z" fill="#bbc145"/>
            <path id="Path_177386" data-name="Path 177386" d="M2205.607,2330.685a1.251,1.251,0,1,0,2.209.73A3.162,3.162,0,0,0,2205.607,2330.685Z" fill="#bbc145"/>
            <path id="Path_177387" data-name="Path 177387" d="M2182.8,2339.162a1.251,1.251,0,1,0,2.209.731A3.17,3.17,0,0,0,2182.8,2339.162Z" fill="#bbc145"/>
            <path id="Path_177388" data-name="Path 177388" d="M2145.89,2304.148a1.251,1.251,0,1,0,2.209.731A3.174,3.174,0,0,0,2145.89,2304.148Z" fill="#bbc145"/>
          </g>
        </g>
      </g>
      <g id="Group_56008" data-name="Group 56008">
        <g id="Group_55978" data-name="Group 55978">
          <g id="Group_55976" data-name="Group 55976">
            <path id="Path_177389" data-name="Path 177389" d="M2200.566,2192.2l42.052,76.921h-84.1l42.052-76.921" fill="#54aa52"/>
            <path id="Path_177390" data-name="Path 177390" d="M2174.488,2239.9l48.057-7.5-2.37-4.336-35.752-6.336Z" fill="#408338"/>
            <path id="Path_177391" data-name="Path 177391" d="M2200.566,2179.375l28.034,51.281h-56.069l28.034-51.281" fill="#54aa52"/>
            <path id="Path_177392" data-name="Path 177392" d="M2185.138,2207.6l28.431-4.437-4.181-7.648-16.084-2.851Z" fill="#408338"/>
            <path id="Path_177393" data-name="Path 177393" d="M2200.566,2168.523l16.919,30.948h-33.838l16.919-30.948" fill="#54aa52"/>
            <path id="Path_177394" data-name="Path 177394" d="M2190.484,2186.965l18.579-2.9-5.09-9.311-6.212-1.1Z" fill="#408338"/>
            <path id="Path_177395" data-name="Path 177395" d="M2200.566,2161l11.243,20.566h-22.486L2200.566,2161" fill="#54aa52"/>
          </g>
          <g id="Group_55977" data-name="Group 55977">
            <path id="Path_177396" data-name="Path 177396" d="M2135.347,2223.863l23.725,43.4h-47.451l23.725-43.4" fill="#54aa52"/>
            <path id="Path_177397" data-name="Path 177397" d="M2120.634,2250.776l27.113-4.231-1.337-2.446-20.171-3.575Z" fill="#408338"/>
            <path id="Path_177398" data-name="Path 177398" d="M2135.347,2216.63l15.817,28.932H2119.53l15.817-28.932" fill="#54aa52"/>
            <path id="Path_177399" data-name="Path 177399" d="M2126.643,2232.552l16.041-2.5-2.359-4.315-9.075-1.608Z" fill="#408338"/>
            <path id="Path_177400" data-name="Path 177400" d="M2135.347,2210.507l9.546,17.461H2125.8l9.545-17.461" fill="#54aa52"/>
            <path id="Path_177401" data-name="Path 177401" d="M2129.659,2220.912l10.482-1.636-2.872-5.253-3.5-.621Z" fill="#408338"/>
            <path id="Path_177402" data-name="Path 177402" d="M2135.347,2206.265l6.343,11.6H2129l6.343-11.6" fill="#54aa52"/>
          </g>
        </g>
        <g id="Group_56007" data-name="Group 56007">
          <g id="Group_55992" data-name="Group 55992">
            <g id="Group_55991" data-name="Group 55991" clip-path="url(#clip-path)">
              <g id="Group_55990" data-name="Group 55990">
                <g id="Group_55985" data-name="Group 55985">
                  <g id="Group_55979" data-name="Group 55979">
                    <path id="Path_177403" data-name="Path 177403" d="M2240.279,2297.143v-.13c0-36.368-6.8-65.849-15.189-65.849s-15.188,29.481-15.188,65.849v.13Z" fill="#408338"/>
                    <path id="Path_177404" data-name="Path 177404" d="M2214.187,2283.085l9.089,10.839-.083,3.219h3.014l-.388-13.425,9.311-11.1-9.411,7.659-.7-24.264,4.311-5.141-4.357,3.546-.36-12.45-.6,23.232-5.157-4.2,5.109,6.093-.6,23.462Z" fill="#d1c91a"/>
                  </g>
                  <g id="Group_55980" data-name="Group 55980">
                    <path id="Path_177405" data-name="Path 177405" d="M2272.354,2297.143v-.13c0-36.368-6.8-65.849-15.189-65.849s-15.188,29.481-15.188,65.849v.13Z" fill="#b3c738"/>
                    <path id="Path_177406" data-name="Path 177406" d="M2246.262,2283.085l9.089,10.839-.083,3.219h3.014l-.388-13.425,9.311-11.1-9.411,7.659-.7-24.264,4.311-5.141-4.357,3.546-.36-12.45-.6,23.232-5.157-4.2,5.109,6.093-.6,23.462Z" fill="#d1c91a"/>
                  </g>
                  <g id="Group_55981" data-name="Group 55981">
                    <path id="Path_177407" data-name="Path 177407" d="M2194.445,2297.227c-.044-16.874-3.211-30.5-7.113-30.5s-7.07,13.622-7.114,30.5Z" fill="#b3c738"/>
                    <path id="Path_177408" data-name="Path 177408" d="M2182.223,2291.055l4.258,5.078-.028,1.095h1.389l-.17-5.876,4.362-5.2-4.409,3.588-.329-11.367,2.019-2.408-2.041,1.661-.169-5.833-.28,10.884-2.416-1.966,2.393,2.854-.282,10.991Z" fill="#dde197"/>
                  </g>
                  <g id="Group_55982" data-name="Group 55982">
                    <path id="Path_177409" data-name="Path 177409" d="M2216.4,2297.143c-.04-27.388-5.173-49.538-11.5-49.538s-11.459,22.15-11.5,49.538Z" fill="#72c352"/>
                    <path id="Path_177410" data-name="Path 177410" d="M2196.647,2286.917l6.882,8.207-.052,2.019h2.259l-.282-9.747,7.05-8.408-7.125,5.8-.531-18.371,3.264-3.893-3.3,2.685-.273-9.427-.452,17.59-3.905-3.178,3.868,4.613-.457,17.764Z" fill="#9fd163"/>
                  </g>
                  <g id="Group_55983" data-name="Group 55983">
                    <path id="Path_177411" data-name="Path 177411" d="M2322.682,2297.143c-.084-37.3-7.082-67.425-15.7-67.425s-15.622,30.126-15.705,67.425Z" fill="#408338"/>
                    <path id="Path_177412" data-name="Path 177412" d="M2295.7,2283.412l9.4,11.209-.065,2.522h3.073l-.378-13.077,9.629-11.484-9.732,7.92-.726-25.092,4.458-5.317-4.506,3.667-.372-12.875-.618,24.026-5.333-4.341,5.283,6.3-.624,24.263Z" fill="#9fd163"/>
                  </g>
                  <g id="Group_55984" data-name="Group 55984">
                    <path id="Path_177413" data-name="Path 177413" d="M2296.4,2297.143c-.04-27.388-5.173-49.538-11.5-49.538s-11.46,22.15-11.5,49.538Z" fill="#54aa52"/>
                    <path id="Path_177414" data-name="Path 177414" d="M2276.646,2286.917l6.881,8.207-.052,2.019h2.26l-.282-9.747,7.05-8.408-7.125,5.8-.531-18.371,3.264-3.893-3.3,2.685-.272-9.427-.452,17.59-3.9-3.178,3.868,4.613-.457,17.764Z" fill="#9fd163"/>
                  </g>
                </g>
                <g id="Group_55989" data-name="Group 55989">
                  <g id="Group_55988" data-name="Group 55988">
                    <path id="Path_177415" data-name="Path 177415" d="M2261.067,2276.229a8.759,8.759,0,0,0-14.447.5,6,6,0,0,0-1.483-.153,6.18,6.18,0,0,0,.258,12.357,5.988,5.988,0,0,0,2.685-.7,8.731,8.731,0,0,0,11.671.182,5.967,5.967,0,0,0,1.563.172,6.181,6.181,0,0,0-.247-12.358Z" fill="#488818"/>
                    <path id="Path_177416" data-name="Path 177416" d="M2252.327,2289.794a.725.725,0,0,1-.722-.582c-.017-.07-.766-2.945-6.59-5.265a.735.735,0,0,1-.408-.95.719.719,0,0,1,.937-.414c6.694,2.667,7.45,6.188,7.478,6.336a.732.732,0,0,1-.569.861A.774.774,0,0,1,2252.327,2289.794Z" fill="#662b14"/>
                    <path id="Path_177417" data-name="Path 177417" d="M2254.122,2290.806a.726.726,0,0,0,.7-.612c.014-.071.643-2.975,6.364-5.544a.736.736,0,0,0,.368-.967.719.719,0,0,0-.954-.373c-6.576,2.952-7.183,6.5-7.206,6.652a.733.733,0,0,0,.6.836A.793.793,0,0,0,2254.122,2290.806Z" fill="#662b14"/>
                    <rect id="Rectangle_34826" data-name="Rectangle 34826" width="5.806" height="19.306" transform="translate(2251.041 2278.487) rotate(-1.235)" fill="#b64c23"/>
                    <path id="Path_177418" data-name="Path 177418" d="M2257.049,2287.847l-5.739,3.219-.3-14.119,5.8-.125Z" fill="#662b14"/>
                    <path id="Path_177419" data-name="Path 177419" d="M2275.767,2269.248a6.432,6.432,0,0,0-3.263-5.482,18.64,18.64,0,0,0-37.095.347,6.469,6.469,0,0,0-3.052,9.249,10.743,10.743,0,0,0-.906,4.561,10.581,10.581,0,0,0,10.736,10.431,10.434,10.434,0,0,0,7.814-3.788,18.353,18.353,0,0,0,7.844.021,10.42,10.42,0,0,0,7.795,3.263,10.6,10.6,0,0,0,10.289-10.884,10.713,10.713,0,0,0-1.018-4.353A6.462,6.462,0,0,0,2275.767,2269.248Z" fill="#72c352"/>
                    <g id="Group_55986" data-name="Group 55986">
                      <path id="Path_177420" data-name="Path 177420" d="M2257.124,2291.408a1.682,1.682,0,0,0-.423-.046,1.744,1.744,0,0,0-1.694,1.792l.092,4.39a1.5,1.5,0,0,0,.012.166l2.144-.046Z" fill="#e16c23"/>
                      <path id="Path_177421" data-name="Path 177421" d="M2253.26,2295.55h0a.813.813,0,0,1-.825-.8l-.012-.58a.815.815,0,0,1,.791-.837h0a.814.814,0,0,1,.826.8l.012.58A.815.815,0,0,1,2253.26,2295.55Z" fill="#e16c23"/>
                      <path id="Path_177422" data-name="Path 177422" d="M2256.031,2290.649h0a.583.583,0,0,1-.591-.574l-.008-.415a.583.583,0,0,1,.566-.6h0a.582.582,0,0,1,.591.574l.009.415A.582.582,0,0,1,2256.031,2290.649Z" fill="#e16c23"/>
                      <path id="Path_177423" data-name="Path 177423" d="M2253.295,2297.219h0a.478.478,0,0,1-.484-.471l-.007-.34a.478.478,0,0,1,.464-.49h0a.476.476,0,0,1,.484.47l.007.34A.478.478,0,0,1,2253.295,2297.219Z" fill="#e16c23"/>
                    </g>
                    <g id="Group_55987" data-name="Group 55987">
                      <path id="Path_177424" data-name="Path 177424" d="M2261.685,2259.693a1.225,1.225,0,1,1-1.251-1.215A1.236,1.236,0,0,1,2261.685,2259.693Z" fill="#9fd163"/>
                      <path id="Path_177425" data-name="Path 177425" d="M2264.551,2256.269a.866.866,0,1,1-.884-.86A.872.872,0,0,1,2264.551,2256.269Z" fill="#9fd163"/>
                      <path id="Path_177426" data-name="Path 177426" d="M2261.23,2253.326a2.129,2.129,0,1,1-2.174-2.111A2.146,2.146,0,0,1,2261.23,2253.326Z" fill="#9fd163"/>
                    </g>
                  </g>
                  <path id="Path_177427" data-name="Path 177427" d="M2259.153,2296.768a1.593,1.593,0,0,0,.15-.707,1.562,1.562,0,0,0-1.585-1.54,1.527,1.527,0,0,0-.535.11,2.571,2.571,0,0,0-4.786-.073,1.816,1.816,0,0,0-.847-.191,1.851,1.851,0,0,0-1.8,1.9,1.877,1.877,0,0,0,.219.839c-1.171.205-1.886.46-1.88.724.012.553,3.18.933,7.077.849s7.046-.6,7.034-1.153C2262.2,2297.185,2260.99,2296.909,2259.153,2296.768Z" fill="#409e38"/>
                </g>
              </g>
            </g>
          </g>
          <g id="Group_56006" data-name="Group 56006">
            <g id="Group_56005" data-name="Group 56005" clip-path="url(#clip-path-2)">
              <g id="Group_56004" data-name="Group 56004">
                <g id="Group_55999" data-name="Group 55999">
                  <g id="Group_55993" data-name="Group 55993">
                    <path id="Path_177428" data-name="Path 177428" d="M2088.667,2297.74v-.131c0-36.367,6.8-65.849,15.189-65.849s15.188,29.482,15.188,65.849v.131Z" fill="#408338"/>
                    <path id="Path_177429" data-name="Path 177429" d="M2114.759,2283.681l-9.089,10.839.083,3.219h-3.014l.388-13.425-9.311-11.1,9.411,7.659.7-24.264-4.311-5.141,4.357,3.546.36-12.45.6,23.232,5.157-4.2-5.109,6.093.6,23.462Z" fill="#d1c91a"/>
                  </g>
                  <g id="Group_55994" data-name="Group 55994">
                    <path id="Path_177430" data-name="Path 177430" d="M2056.592,2297.74v-.131c0-36.367,6.8-65.849,15.189-65.849s15.188,29.482,15.188,65.849v.131Z" fill="#b3c738"/>
                    <path id="Path_177431" data-name="Path 177431" d="M2082.684,2283.681l-9.089,10.839.083,3.219h-3.014l.388-13.425-9.311-11.1,9.411,7.659.7-24.264-4.311-5.141,4.357,3.546.36-12.45.6,23.232,5.157-4.2-5.109,6.093.6,23.462Z" fill="#d1c91a"/>
                  </g>
                  <g id="Group_55995" data-name="Group 55995">
                    <path id="Path_177432" data-name="Path 177432" d="M2134.5,2297.824c.044-16.874,3.211-30.5,7.113-30.5s7.07,13.622,7.114,30.5Z" fill="#b3c738"/>
                    <path id="Path_177433" data-name="Path 177433" d="M2146.722,2291.651l-4.258,5.078.028,1.095H2141.1l.17-5.876-4.362-5.2,4.409,3.588.329-11.367-2.02-2.408,2.041,1.661.169-5.833.28,10.884,2.416-1.966-2.393,2.854.283,10.991Z" fill="#dde197"/>
                  </g>
                  <g id="Group_55996" data-name="Group 55996">
                    <path id="Path_177434" data-name="Path 177434" d="M2112.544,2297.74c.04-27.389,5.172-49.538,11.5-49.538s11.459,22.149,11.5,49.538Z" fill="#72c352"/>
                    <path id="Path_177435" data-name="Path 177435" d="M2132.3,2287.514l-6.881,8.207.052,2.019h-2.26l.282-9.747-7.05-8.408,7.125,5.8.531-18.371-3.264-3.893,3.3,2.685.272-9.427.452,17.59,3.9-3.178-3.868,4.613.457,17.764Z" fill="#9fd163"/>
                  </g>
                  <g id="Group_55997" data-name="Group 55997">
                    <path id="Path_177436" data-name="Path 177436" d="M2006.264,2297.74c.084-37.3,7.082-67.426,15.7-67.426s15.622,30.127,15.7,67.426Z" fill="#408338"/>
                    <path id="Path_177437" data-name="Path 177437" d="M2033.245,2284.008l-9.4,11.209.065,2.522h-3.073l.378-13.077-9.629-11.484,9.732,7.92.726-25.092-4.458-5.317,4.506,3.667.372-12.875.618,24.026,5.333-4.341-5.283,6.3.624,24.263Z" fill="#9fd163"/>
                  </g>
                  <g id="Group_55998" data-name="Group 55998">
                    <path id="Path_177438" data-name="Path 177438" d="M2032.545,2297.74c.04-27.389,5.173-49.538,11.5-49.538s11.46,22.149,11.5,49.538Z" fill="#54aa52"/>
                    <path id="Path_177439" data-name="Path 177439" d="M2052.3,2287.514l-6.882,8.207.052,2.019h-2.259l.282-9.747-7.05-8.408,7.125,5.8.531-18.371-3.264-3.893,3.3,2.685.273-9.427.452,17.59,3.905-3.178-3.868,4.613.457,17.764Z" fill="#9fd163"/>
                  </g>
                </g>
                <g id="Group_56003" data-name="Group 56003">
                  <g id="Group_56002" data-name="Group 56002">
                    <path id="Path_177440" data-name="Path 177440" d="M2067.879,2276.826a8.758,8.758,0,0,1,14.446.5,6.015,6.015,0,0,1,1.484-.153,6.181,6.181,0,0,1-.258,12.358,6,6,0,0,1-2.685-.7,8.733,8.733,0,0,1-11.671.183,6.02,6.02,0,0,1-1.563.171,6.18,6.18,0,0,1,.247-12.357Z" fill="#488818"/>
                    <path id="Path_177441" data-name="Path 177441" d="M2076.619,2290.39a.725.725,0,0,0,.722-.581c.017-.071.766-2.945,6.589-5.265a.736.736,0,0,0,.409-.951.72.72,0,0,0-.938-.414c-6.694,2.667-7.449,6.188-7.477,6.336a.732.732,0,0,0,.569.861A.774.774,0,0,0,2076.619,2290.39Z" fill="#662b14"/>
                    <path id="Path_177442" data-name="Path 177442" d="M2074.824,2291.4a.726.726,0,0,1-.7-.612c-.014-.071-.643-2.975-6.364-5.543a.738.738,0,0,1-.368-.968.718.718,0,0,1,.953-.373c6.577,2.952,7.184,6.5,7.207,6.652a.732.732,0,0,1-.6.836A.794.794,0,0,1,2074.824,2291.4Z" fill="#662b14"/>
                    <rect id="Rectangle_34828" data-name="Rectangle 34828" width="5.806" height="19.306" transform="matrix(-1, -0.022, 0.022, -1, 2077.489, 2298.385)" fill="#b64c23"/>
                    <path id="Path_177443" data-name="Path 177443" d="M2071.9,2288.443l5.74,3.219.3-14.119-5.8-.125Z" fill="#662b14"/>
                    <path id="Path_177444" data-name="Path 177444" d="M2053.178,2269.844a6.431,6.431,0,0,1,3.264-5.481,18.64,18.64,0,0,1,37.1.347,6.468,6.468,0,0,1,3.052,9.248,10.739,10.739,0,0,1,.9,4.561,10.579,10.579,0,0,1-10.735,10.431,10.434,10.434,0,0,1-7.815-3.788,18.365,18.365,0,0,1-7.844.021,10.414,10.414,0,0,1-7.794,3.263,10.6,10.6,0,0,1-10.289-10.883,10.722,10.722,0,0,1,1.018-4.354A6.471,6.471,0,0,1,2053.178,2269.844Z" fill="#72c352"/>
                    <g id="Group_56000" data-name="Group 56000">
                      <path id="Path_177445" data-name="Path 177445" d="M2071.822,2292a1.693,1.693,0,0,1,.423-.046,1.745,1.745,0,0,1,1.694,1.792l-.092,4.39c0,.056-.006.112-.012.166l-2.144-.046Z" fill="#e16c23"/>
                      <path id="Path_177446" data-name="Path 177446" d="M2075.686,2296.146h0a.813.813,0,0,0,.825-.8l.012-.58a.815.815,0,0,0-.791-.837h0a.815.815,0,0,0-.826.8l-.012.581A.815.815,0,0,0,2075.686,2296.146Z" fill="#e16c23"/>
                      <path id="Path_177447" data-name="Path 177447" d="M2072.915,2291.246h0a.584.584,0,0,0,.591-.575l.008-.415a.583.583,0,0,0-.566-.6h0a.582.582,0,0,0-.591.574l-.009.416A.584.584,0,0,0,2072.915,2291.246Z" fill="#e16c23"/>
                      <path id="Path_177448" data-name="Path 177448" d="M2075.651,2297.815h0a.477.477,0,0,0,.483-.47l.008-.341a.479.479,0,0,0-.464-.49h0a.476.476,0,0,0-.484.47l-.007.34A.478.478,0,0,0,2075.651,2297.815Z" fill="#e16c23"/>
                    </g>
                    <g id="Group_56001" data-name="Group 56001">
                      <path id="Path_177449" data-name="Path 177449" d="M2067.261,2260.289a1.225,1.225,0,1,0,1.251-1.215A1.234,1.234,0,0,0,2067.261,2260.289Z" fill="#9fd163"/>
                      <path id="Path_177450" data-name="Path 177450" d="M2064.394,2256.865a.866.866,0,1,0,.885-.859A.872.872,0,0,0,2064.394,2256.865Z" fill="#9fd163"/>
                      <path id="Path_177451" data-name="Path 177451" d="M2067.716,2253.922a2.129,2.129,0,1,0,2.173-2.111A2.144,2.144,0,0,0,2067.716,2253.922Z" fill="#9fd163"/>
                    </g>
                  </g>
                  <path id="Path_177452" data-name="Path 177452" d="M2069.793,2297.364a1.593,1.593,0,0,1-.15-.707,1.562,1.562,0,0,1,1.585-1.54,1.533,1.533,0,0,1,.535.11,2.572,2.572,0,0,1,4.786-.073,1.8,1.8,0,0,1,.847-.19,1.864,1.864,0,0,1,1.577,2.738c1.171.2,1.885.459,1.88.723-.012.553-3.18.933-7.077.85s-7.046-.6-7.035-1.154C2066.749,2297.781,2067.956,2297.506,2069.793,2297.364Z" fill="#409e38"/>
                </g>
              </g>
            </g>
          </g>
        </g>
      </g>
      <g id="Group_56021" data-name="Group 56021">
        <g id="Group_56014" data-name="Group 56014">
          <g id="Group_56013" data-name="Group 56013" clip-path="url(#clip-path-3)">
            <g id="Group_56012" data-name="Group 56012">
              <g id="Group_56009" data-name="Group 56009">
                <path id="Path_177453" data-name="Path 177453" d="M2364.254,2274.614c.085-.089.137-.148.137-.148S2364.335,2274.522,2364.254,2274.614Z" fill="#408338"/>
                <path id="Path_177454" data-name="Path 177454" d="M2367.65,2316.008c.23-9.148-20.252,4.5-19.973-3.431s16.882-13.5,14.662-23.764c-1.987-9.186,1.217-13.41,1.915-14.2-.731.758-4.679,4.287-13.873,3.035-10.275-1.4-14.383,15.831-22.159,16.765s3.961-20.88-5.014-19.9-9.467,33.3-18.968,36.129,3.992-34.9-12.18-27.26-17.655,47.392-22.406,48.809-1.365-18.83-11.331-18.771-5.681,43.851-14.23,40.552c-5.294-11.964-24.215-19.095-9.205,10.133,12.611,24.557,7.149,41.322,5.081,46.055q-7.248,7.614-14.457,15.267c-.727.773.455,1.861,1.2,1.118q7.939-7.944,15.769-15.99c5.847-2.806,21.245-7.8,44.348,2.039,29.968,12.764,21.4-5.767,9.205-10.132-3.946-8.365,39.459-7.636,38.7-17.708s-20.388-4.99-19.385-9.906,39.966-9.679,46.144-26.646-29.806-.234-27.8-10.066S2367.42,2325.157,2367.65,2316.008Z" fill="#406d3c"/>
              </g>
              <g id="Group_56010" data-name="Group 56010">
                <path id="Path_177455" data-name="Path 177455" d="M2197.5,2323.422c-.065-.067-.1-.112-.1-.112S2197.434,2323.352,2197.5,2323.422Z" fill="#54aa52"/>
                <path id="Path_177456" data-name="Path 177456" d="M2194.92,2355.832c-.174-6.938,15.36,3.414,15.148-2.6s-12.8-10.239-11.12-18.024c1.507-6.967-.924-10.171-1.452-10.769.554.575,3.548,3.251,10.522,2.3,7.792-1.062,10.908,12.007,16.8,12.715s-3-15.836,3.8-15.09,7.18,25.252,14.386,27.4-3.028-26.466,9.238-20.675,13.39,35.944,16.993,37.019,1.036-14.282,8.594-14.237,4.309,33.259,10.792,30.757c4.015-9.075,18.366-14.483,6.982,7.684-9.565,18.626-5.422,31.341-3.853,34.931q5.5,5.775,10.964,11.579c.552.586-.345,1.411-.908.848q-6.022-6.025-11.961-12.128c-4.434-2.128-16.112-5.916-33.634,1.547-22.73,9.68-16.233-4.374-6.982-7.685,2.993-6.344-29.928-5.791-29.351-13.43s15.463-3.784,14.7-7.513-30.313-7.342-35-20.21,22.606-.177,21.085-7.634S2195.094,2362.771,2194.92,2355.832Z" fill="#439140"/>
              </g>
              <g id="Group_56011" data-name="Group 56011">
                <path id="Path_177457" data-name="Path 177457" d="M2194.847,2338.536c-.018-.06-.027-.1-.027-.1S2194.832,2338.475,2194.847,2338.536Z" fill="#408338"/>
                <path id="Path_177458" data-name="Path 177458" d="M2183.819,2356.223c2-4.14,8.012,6.793,9.71,3.184s-4.439-10.016-1.089-14.077c3-3.634,2.537-6.277,2.407-6.794.152.511,1.1,3.019,5.5,4.631,4.91,1.8,2.786,10.468,6.045,12.72s3.028-10.261,6.812-7.7-3.422,17.108.171,20.617,6.234-16.53,11.7-9.3-3,25.338-1.207,27.092,4.936-8.089,9.374-5.709-7.538,20.929-2.962,21.474c5.114-4.095,15.2-2.812,1.784,6.7-11.276,7.991-12.688,16.769-12.851,19.372q1.488,5.112,2.949,10.232a.411.411,0,0,1-.792.217q-1.72-5.422-3.369-10.866c-1.967-2.633-7.7-8.5-20.278-9.56-16.318-1.375-8.235-7.629-1.783-6.7,3.684-2.8-15.871-12.728-13.217-17.048s10.253,2.586,10.934.153-15.627-13.76-14.488-22.8,13.367,6.933,14.73,2.068S2181.82,2360.364,2183.819,2356.223Z" fill="#408338"/>
              </g>
            </g>
          </g>
        </g>
        <g id="Group_56020" data-name="Group 56020">
          <g id="Group_56019" data-name="Group 56019" clip-path="url(#clip-path-4)">
            <g id="Group_56018" data-name="Group 56018">
              <g id="Group_56015" data-name="Group 56015">
                <path id="Path_177459" data-name="Path 177459" d="M1965.989,2275.688c-.084-.088-.135-.147-.135-.147S1965.908,2275.6,1965.989,2275.688Z" fill="#408338"/>
                <path id="Path_177460" data-name="Path 177460" d="M1962.629,2316.648c-.228-9.053,20.039,4.453,19.763-3.4s-16.7-13.357-14.508-23.515c1.966-9.09-1.205-13.269-1.9-14.049.723.749,4.63,4.241,13.728,3,10.166-1.384,14.232,15.666,21.926,16.59s-3.92-20.662,4.962-19.688,9.367,32.946,18.769,35.75-3.951-34.529,12.052-26.974,17.47,46.894,22.17,48.3,1.352-18.633,11.212-18.574,5.622,43.392,14.081,40.127c5.238-11.839,23.961-18.9,9.109,10.026-12.479,24.3-7.074,40.889-5.027,45.573q7.172,7.533,14.3,15.106c.72.765-.45,1.842-1.185,1.106q-7.856-7.86-15.6-15.822c-5.785-2.776-21.021-7.718-43.882,2.018-29.654,12.629-21.178-5.706-9.109-10.026,3.905-8.277-39.045-7.555-38.293-17.523s20.174-4.936,19.182-9.8-39.547-9.578-45.66-26.367,29.493-.231,27.509-9.96S1962.856,2325.7,1962.629,2316.648Z" fill="#406d3c"/>
              </g>
              <g id="Group_56016" data-name="Group 56016">
                <path id="Path_177461" data-name="Path 177461" d="M2131,2323.984c.064-.067.1-.112.1-.112S2131.059,2323.914,2131,2323.984Z" fill="#54aa52"/>
                <path id="Path_177462" data-name="Path 177462" d="M2133.547,2356.054c.172-6.866-15.2,3.377-14.99-2.576s12.67-10.131,11-17.834c-1.491-6.9.914-10.064,1.437-10.656-.548.568-3.511,3.217-10.412,2.277-7.71-1.05-10.794,11.882-16.629,12.582s2.972-15.67-3.764-14.932-7.1,24.988-14.235,27.114,3-26.188-9.141-20.458-13.25,35.567-16.815,36.63-1.025-14.132-8.5-14.087-4.264,32.91-10.68,30.434c-3.973-8.979-18.173-14.331-6.908,7.6,9.464,18.43,5.365,31.012,3.813,34.564q-5.44,5.713-10.85,11.457c-.545.581.342,1.4.9.839q5.958-5.961,11.835-12c4.388-2.1,15.943-5.854,33.282,1.531,22.491,9.579,16.063-4.328,6.908-7.6-2.961-6.278,29.614-5.731,29.043-13.29s-15.3-3.744-14.548-7.434,29.994-7.264,34.63-20-22.368-.175-20.863-7.554S2133.374,2362.92,2133.547,2356.054Z" fill="#439140"/>
              </g>
              <g id="Group_56017" data-name="Group 56017">
                <path id="Path_177463" data-name="Path 177463" d="M2133.619,2338.939c.017-.06.026-.1.026-.1S2133.634,2338.878,2133.619,2338.939Z" fill="#408338"/>
                <path id="Path_177464" data-name="Path 177464" d="M2144.531,2356.441c-1.979-4.1-7.928,6.721-9.608,3.149s4.392-9.91,1.077-13.929c-2.966-3.6-2.51-6.211-2.381-6.722-.151.505-1.094,2.987-5.442,4.582-4.859,1.782-2.758,10.358-5.982,12.587s-3-10.154-6.74-7.622,3.386,16.928-.17,20.4-6.168-16.356-11.581-9.2,2.972,25.072,1.194,26.808-4.884-8-9.275-5.649,7.458,20.709,2.93,21.248c-5.06-4.051-15.044-2.783-1.765,6.629,11.157,7.907,12.555,16.594,12.717,19.169q-1.473,5.058-2.919,10.125a.407.407,0,0,0,.784.214q1.7-5.366,3.334-10.752c1.946-2.606,7.616-8.411,20.065-9.46,16.147-1.36,8.148-7.549,1.765-6.629-3.646-2.775,15.7-12.594,13.078-16.868s-10.146,2.558-10.82.151,15.464-13.616,14.337-22.558-13.227,6.86-14.576,2.046S2146.509,2360.538,2144.531,2356.441Z" fill="#408338"/>
              </g>
            </g>
          </g>
        </g>
      </g>
      <g id="Group_56035" data-name="Group 56035">
        <g id="Group_56024" data-name="Group 56024">
          <g id="Group_56023" data-name="Group 56023">
            <g id="Group_56022" data-name="Group 56022">
              <path id="Path_177465" data-name="Path 177465" d="M2230.179,2292.609s-51.849-51.87-65.675-81.68c-13.827,29.81-65.676,81.68-65.676,81.68Z" fill="#ffd623"/>
              <path id="Path_177466" data-name="Path 177466" d="M2212.927,2292.61s-38.229-51.871-48.423-81.681c-10.195,29.81-48.424,81.681-48.424,81.681Z" fill="#ffb023"/>
              <path id="Path_177467" data-name="Path 177467" d="M2173.032,2292.609s-6.733-33.822-8.528-53.261c-1.8,19.439-8.528,53.261-8.528,53.261Z" fill="#956323"/>
              <path id="Path_177468" data-name="Path 177468" d="M2164.5,2210.929s-.588,44.508,24.7,78.79l-16.173,2.89S2160.387,2234.687,2164.5,2210.929Z" fill="#f09a23"/>
              <path id="Path_177469" data-name="Path 177469" d="M2164.709,2210.929s.588,44.508-24.7,78.79l16.174,2.89S2168.826,2234.687,2164.709,2210.929Z" fill="#f09a23"/>
              <path id="Path_177470" data-name="Path 177470" d="M2174.649,2225.089s-8.009-9.419-10.145-14.832c-2.136,5.413-10.146,14.832-10.146,14.832Z" fill="#ff7"/>
            </g>
            <path id="Path_177471" data-name="Path 177471" d="M2164.5,2210.257s57.88,71.84,127.3,86.036" fill="none" stroke="#ffea77" stroke-linecap="round" stroke-linejoin="round" stroke-width="1"/>
            <path id="Path_177472" data-name="Path 177472" d="M2165.066,2210.257s-56.151,71.691-125.572,85.887" fill="none" stroke="#ffea77" stroke-linecap="round" stroke-linejoin="round" stroke-width="1"/>
          </g>
          <path id="Path_177473" data-name="Path 177473" d="M2167.068,2291.5c-50.265,0-97.4,1.595-138.062,4.383,28.227,1.625,81.668,2.722,142.956,2.722,57.483,0,108.06-.965,137.409-2.426C2267.762,2293.208,2219.09,2291.5,2167.068,2291.5Z" fill="#88a727"/>
        </g>
        <g id="Group_56034" data-name="Group 56034">
          <path id="Path_177474" data-name="Path 177474" d="M2216.719,2310.255c0,.933-22.053,1.689-49.256,1.689s-49.257-.756-49.257-1.689,22.053-1.69,49.257-1.69S2216.719,2309.322,2216.719,2310.255Z" fill="#408338" opacity="0.23" style="mix-blend-mode: multiply;isolation: isolate"/>
          <g id="Group_56031" data-name="Group 56031">
            <g id="Group_56027" data-name="Group 56027">
              <g id="Group_56025" data-name="Group 56025">
                <path id="Path_177475" data-name="Path 177475" d="M2174.7,2304.988a4.935,4.935,0,0,0-4.9,4.969h34.888v-4.969Z" fill="#815c34"/>
                <path id="Path_177476" data-name="Path 177476" d="M2199.4,2309.957a4.9,4.9,0,1,1,9.8,0Z" fill="#eddba9"/>
                <path id="Path_177477" data-name="Path 177477" d="M2198.533,2306.777h-16.027a.383.383,0,0,1-.38-.385h0a.382.382,0,0,1,.38-.385h16.027a.382.382,0,0,1,.379.385h0A.383.383,0,0,1,2198.533,2306.777Z" fill="#b86a34"/>
                <path id="Path_177478" data-name="Path 177478" d="M2189.346,2308.565H2173.32a.382.382,0,0,1-.38-.385h0a.383.383,0,0,1,.38-.385h16.026a.383.383,0,0,1,.38.385h0A.382.382,0,0,1,2189.346,2308.565Z" fill="#b86a34"/>
              </g>
              <g id="Group_56026" data-name="Group 56026">
                <path id="Path_177479" data-name="Path 177479" d="M2162.484,2304.988a4.935,4.935,0,0,0-4.9,4.969h34.888v-4.969Z" fill="#815c34"/>
                <path id="Path_177480" data-name="Path 177480" d="M2187.185,2309.957a4.9,4.9,0,1,1,9.8,0Z" fill="#eddba9"/>
                <path id="Path_177481" data-name="Path 177481" d="M2186.316,2306.777h-16.027a.383.383,0,0,1-.38-.385h0a.382.382,0,0,1,.38-.385h16.027a.382.382,0,0,1,.379.385h0A.383.383,0,0,1,2186.316,2306.777Z" fill="#b86a34"/>
                <path id="Path_177482" data-name="Path 177482" d="M2177.129,2308.565H2161.1a.382.382,0,0,1-.38-.385h0a.383.383,0,0,1,.38-.385h16.026a.383.383,0,0,1,.38.385h0A.382.382,0,0,1,2177.129,2308.565Z" fill="#b86a34"/>
              </g>
            </g>
            <g id="Group_56030" data-name="Group 56030">
              <g id="Group_56028" data-name="Group 56028">
                <path id="Path_177483" data-name="Path 177483" d="M2160.338,2304.988a4.935,4.935,0,0,1,4.9,4.969H2130.35v-4.969Z" fill="#815c34"/>
                <path id="Path_177484" data-name="Path 177484" d="M2135.636,2309.957a4.9,4.9,0,1,0-9.8,0Z" fill="#eddba9"/>
                <path id="Path_177485" data-name="Path 177485" d="M2136.506,2306.777h16.027a.383.383,0,0,0,.38-.385h0a.382.382,0,0,0-.38-.385h-16.027a.383.383,0,0,0-.38.385h0A.384.384,0,0,0,2136.506,2306.777Z" fill="#b86a34"/>
                <path id="Path_177486" data-name="Path 177486" d="M2145.692,2308.565h16.027a.382.382,0,0,0,.38-.385h0a.383.383,0,0,0-.38-.385h-16.027a.383.383,0,0,0-.379.385h0A.382.382,0,0,0,2145.692,2308.565Z" fill="#b86a34"/>
              </g>
              <g id="Group_56029" data-name="Group 56029">
                <path id="Path_177487" data-name="Path 177487" d="M2172.555,2304.988a4.935,4.935,0,0,1,4.9,4.969h-34.888v-4.969Z" fill="#815c34"/>
                <path id="Path_177488" data-name="Path 177488" d="M2147.853,2309.957a4.9,4.9,0,1,0-9.8,0Z" fill="#eddba9"/>
                <path id="Path_177489" data-name="Path 177489" d="M2148.723,2306.777h16.027a.383.383,0,0,0,.38-.385h0a.382.382,0,0,0-.38-.385h-16.027a.383.383,0,0,0-.38.385h0A.383.383,0,0,0,2148.723,2306.777Z" fill="#b86a34"/>
                <path id="Path_177490" data-name="Path 177490" d="M2157.909,2308.565h16.027a.382.382,0,0,0,.38-.385h0a.383.383,0,0,0-.38-.385h-16.027a.383.383,0,0,0-.379.385h0A.382.382,0,0,0,2157.909,2308.565Z" fill="#b86a34"/>
              </g>
            </g>
          </g>
          <path id="Path_177491" data-name="Path 177491" d="M2166.692,2308.466c7.273,0,13.421-1.465,15.434-3.478h-30.869C2153.27,2307,2159.418,2308.466,2166.692,2308.466Z" fill="#ffed23" style="mix-blend-mode: overlay;isolation: isolate"/>
          <g id="Group_56033" data-name="Group 56033">
            <g id="Group_56032" data-name="Group 56032">
              <path id="Path_177492" data-name="Path 177492" d="M2166.371,2305.118s-11.563,2.2-13.177-8.839,11.306-12.4,9.036-22.765a7.958,7.958,0,0,1,2.085,6.8c-.835,3.908,2.939,4.248,4.32,1.53s-.926-8.666-3.292-12.064a10.427,10.427,0,0,1-2.052-6.457s1.724,4.727,4.309,5.507,9.418,6.9,8.85,12.508.83,8.152,2.9,7.642,1.856-7.306,1.856-7.306,3.41,6.8,2.314,11.724S2178.816,2307.5,2166.371,2305.118Z" fill="#ffed23"/>
              <path id="Path_177493" data-name="Path 177493" d="M2165.992,2304.491a6.885,6.885,0,0,1-6.469-6.111c-.882-5.962,3.823-6.856,4.117-10.881a6.261,6.261,0,0,1,.882,4.621c-.588,2.534.588,2.683,2.352,2.683s4.412-4.174,3.529-8.2c0,0,4.264,3.726,3.823,9.241S2170.256,2304.789,2165.992,2304.491Z" fill="#ff8d12"/>
            </g>
            <path id="Path_177494" data-name="Path 177494" d="M2178.882,2273.588a1.274,1.274,0,1,1-1.274-1.292A1.282,1.282,0,0,1,2178.882,2273.588Z" fill="#ffed23"/>
            <path id="Path_177495" data-name="Path 177495" d="M2152.122,2286.9a1.274,1.274,0,1,1-1.274-1.292A1.283,1.283,0,0,1,2152.122,2286.9Z" fill="#ffed23"/>
            <path id="Path_177496" data-name="Path 177496" d="M2185.94,2280.245a.784.784,0,1,1-.784-.8A.789.789,0,0,1,2185.94,2280.245Z" fill="#ffed23"/>
            <path id="Path_177497" data-name="Path 177497" d="M2168.1,2264.346a.795.795,0,1,1,.784-.795A.789.789,0,0,1,2168.1,2264.346Z" fill="#ffed23"/>
            <path id="Path_177498" data-name="Path 177498" d="M2174.373,2261.266a.4.4,0,0,1,.49-.3.409.409,0,0,1,.294.5.4.4,0,0,1-.49.3A.41.41,0,0,1,2174.373,2261.266Z" fill="#ffed23"/>
            <path id="Path_177499" data-name="Path 177499" d="M2154.965,2280.047a.4.4,0,0,1,.49-.3.41.41,0,0,1,.294.5.4.4,0,0,1-.49.3A.408.408,0,0,1,2154.965,2280.047Z" fill="#ffed23"/>
          </g>
        </g>
      </g>
    </g>
  </g>
</svg>
