<svg xmlns="http://www.w3.org/2000/svg" width="294" height="278" viewBox="0 0 294 278">
  <g id="Group_56054" data-name="Group 56054" transform="translate(-1104 -427)">
    <g id="Group_56053" data-name="Group 56053" transform="translate(-1670.222 -1671.926)">
      <rect id="Rectangle_34833" data-name="Rectangle 34833" width="294" height="278" transform="translate(2774.222 2098.926)" fill="#fff"/>
      <g id="Group_56052" data-name="Group 56052">
        <g id="Group_56045" data-name="Group 56045">
          <g id="Group_56044" data-name="Group 56044">
            <path id="Path_177514" data-name="Path 177514" d="M2962.235,2276.132a32.76,32.76,0,0,1-.074-4.369c.235-1.65.536-3.29.843-4.928-9.124-5.886-13.147-14.868-14.433-15.675a7.893,7.893,0,0,0-1.736-.818,9.6,9.6,0,0,1,1.157,4.879c-.2,3.731-.032,7.586.112,11.333.163,4.245,1.408,9.182-1.131,12.973a8.378,8.378,0,0,1-1.6,1.8c0,.058-.005.117-.007.175a3.359,3.359,0,0,0-.581,4c1.308,2.1,4.09,2.244,6.241,2.09,2.268-.163,4.533-.371,6.8-.581,1.861-.173,4.206.134,4.938-2.111.514-1.581-.171-2.482-.534-3.9C2961.8,2279.337,2962.218,2277.79,2962.235,2276.132Z" fill="#39d1ea"/>
          </g>
          <path id="Path_177515" data-name="Path 177515" d="M2980.855,2228.594c-2.142-5.316-4.032-10.494-6.532-15.556a1.034,1.034,0,0,0-.133-.438,47.931,47.931,0,0,1-2.421-5.336c-.235-.57-.472-1.138-.721-1.7a33.458,33.458,0,0,0-14.135-15.32,26.082,26.082,0,0,0-14.123-2.286q-1.128.118-2.244.317a36.448,36.448,0,0,0-4.752,1.183,50.15,50.15,0,0,0-5.9,2.25c-1.89.457-3.772.968-5.687,1.34a52.283,52.283,0,0,1-6.675.745,46.255,46.255,0,0,1-7.011.006c-.807-.071-1.613-.154-2.42-.231.005,2.158-.308,5.407-1.952,7.849.873-2.772.4-7.986.4-7.986h0c-.029-.539-.074-1.072-.139-1.6-.337-2.739-2.85-4.233-5.2-5.113-2.935-1.1-5.54-2.993-8.563-3.89-8.216-2.438-18.1.846-26.456,1.4a14.534,14.534,0,0,0-8.352,3.083c-4.556,3.733-5.5,8.829-6.991,14.072q-.354,1.25-.693,2.5c-.233.471-.471.94-.722,1.4-.264.488-.542.97-.841,1.441-.055.085-.278.418-.271.41-.212.307-.428.61-.609.934a11.483,11.483,0,0,0-1.188,6,35.157,35.157,0,0,0,.342,3.548c-.106.507-.212,1.014-.314,1.522q-2.16,10.77-3.29,21.682c-.789,7.631-2.776,15.586-.127,23.013,2.264,6.351,9.729,17.6,18.255,16.566a4.512,4.512,0,0,0,4.181-4.64,3.649,3.649,0,0,0-.855-2.152l-.015-.186a2.124,2.124,0,0,0-4.223.362l.091,1.053c.023.291-3.846-1.411-4.247-1.677a19.165,19.165,0,0,1-4.8-4.85c-5.924-8.309-3.416-20.161.423-28.987,1.755-4.032,4.979-4.893,8.477-7.364,3.342-2.361,5.48-6.553,8.878-8.619,1.228,3.735,1.151,8.3,2.01,12.209a6.024,6.024,0,0,0,.748,2.088,1.919,1.919,0,0,0,3.073.427c.865-1.068,1.773-2.1,2.692-3.12q.252-.28.493-.556c2.5-2.863,6.208-5.418,9.281-7.775a57.928,57.928,0,0,0,8.7-8.009c1.524-1.733,3.1-3.136,4.472-4.716a15.056,15.056,0,0,1-4.986,7.3c-6.462,5.045-11.255,9.031-14.67,11.914h0l-.049.042q-.264.222-.516.436l-.074.062-1.093.927-.007.006-.612.519-.33.28-.123.1-.305.258-.128.109c-.285.241-.553.468-.8.678a103.074,103.074,0,0,1-1.814,15.969,87.2,87.2,0,0,1-2.547,9.857c-1.026,3.177-2.465,5.992-2.056,9.418.108.908.353,1.81.379,2.727.106,3.637-2.358,6.782-3.687,10a1.025,1.025,0,0,0,.417,1.168,18.233,18.233,0,0,0,9.119,2.676,10.07,10.07,0,0,0,2.6-.149c.836-.176,1.624-.517,2.436-.772.963-.3,2.2-.334,2.749-1.314a3.636,3.636,0,0,0,.318-1.881c-.021-.983-.127-1.964-.236-2.941-.651-5.83,1.352-11.371,4.709-16.106,2.53-3.566,4.366-5.458,3.746-9.992a12.761,12.761,0,0,1,.462-5.549,27,27,0,0,0-4.818-7.518s6.6,3.4,5.486,9.783c-.008-.044-.019-.088-.028-.131.042,1.732-.1,3.485-.03,5.22.248,6.095,1.795,11.982,2.161,18.059.086,1.424.071,2.876.063,4.309-.056.093-.112.186-.169.278-1.918,3.088-4.647,5.618-5.474,9.3a4.377,4.377,0,0,0-.044,2.147c.737,2.584,5.1,1.976,7.133,2.025,3.257.079,7.933.556,10.981-.739,2.127-.9,2.189-3.413,1.488-5.3-.357-.962-1.314-1.752-1.573-2.674-.353-1.257.376-3.428.509-4.737.534-5.235.55-10.371,1.728-15.5q.125-.538.257-1.082c.4-.7.817-1.382,1.205-2.086a14.551,14.551,0,0,0,1.852-5.746c.1-1.01.067-2.04.082-3.054a3.97,3.97,0,0,0-.455-1.592q0-.285.017-.57a21.947,21.947,0,0,1,1.014-3.432l2.048-6.091a15.851,15.851,0,0,0,.345,7.019A39.132,39.132,0,0,0,2921.5,2249c4.6,1.283,9.442,1.118,14.152.717,2.337-.2,4.7-.381,7.024-.674,1.095-.138,2.187-.365,3.244-.415h.037a5.569,5.569,0,0,1,2.388.352,3.191,3.191,0,0,1,1.344.855h0c1.4,1.275,2.028,3.021,3.16,4.486q2.1,2.712,4.288,5.349,2.59,3.115,5.312,6.118c.4.445.835.887,1.271,1.331.165.155.332.309.5.465l-.111-.066a17.17,17.17,0,0,1,3.031,3.788c.609,1.143.431,3.309.578,4.6.191,1.666.574,4.064-.359,5.51-1,1.544-2.538,2.3-3.192,4.216a3.884,3.884,0,0,0,.563,3.816c1.644,1.736,4.983,1.228,7.107,1.122a32.055,32.055,0,0,0,7.387-.756c1.4-.406,2.69-1.072,3.08-2.561a5.693,5.693,0,0,0,.046-2.094,3.975,3.975,0,0,0-1.062-2.444c.014-1.281-.093-2.562-.2-3.838-.14-1.665-.219-3.332-.288-5-.033-.793-.056-1.588-.042-2.382a9.5,9.5,0,0,1,.179-2.137c.159-.624.462-1.2.629-1.823a3.29,3.29,0,0,0-.057-1.954,13.594,13.594,0,0,0-.936-2c-.306-.579-.535-1.17-.787-1.774-1.131-2.714-2.71-6.2-3.707-8.969-1.085-3.01-1.047-6.229-.994-9.391.056-3.338.247-6.68.416-10.015.158-3.134.6-6.353.638-9.538,1.618,3.657,2.89,7.444,5.746,10.481a9.252,9.252,0,0,0,2.907,2.2c1.195.531,3.135.927,3.949-.3C2985.4,2234.2,2982.333,2232.262,2980.855,2228.594Zm-120.273-13.012s-.308-1.041,1.133-1.3l1.442-.26A1.777,1.777,0,0,1,2860.582,2215.582Z" fill="#39d1ea"/>
        </g>
        <g id="Group_56047" data-name="Group 56047" style="mix-blend-mode: multiply;isolation: isolate">
          <g id="Group_56046" data-name="Group 56046">
            <path id="Path_177516" data-name="Path 177516" d="M2942.7,2264.681a2.187,2.187,0,0,1,.141-.543c.4-1.016,1.477-1.816,2.04-2.73a27.243,27.243,0,0,0,3.039-8.578,33.5,33.5,0,0,1,8.344,2.69c-.039.05-.077.1-.117.153-.4.881-.728,1.6-.845,1.786-1.467,2.4-3.666,4.15-5.1,6.484-1.449,2.365-1.154,5.5-.933,8.2.108,1.326.367,2.693.358,4.027-.01,1.465-.444,2.871-.329,4.36a18.53,18.53,0,0,0,.814,4.138c.24.766.512,1.522.8,2.27.13.336.834,1.407.687,1.748-.381.882-4.174.373-4.828-.026-1.432-.874-.2-3.959-.446-5.3-.111-.606-.218-1.213-.33-1.819-.389-2.085-.109-4.269-.387-6.419a29.441,29.441,0,0,0-1.265-5.534C2943.878,2268.2,2942.51,2266.178,2942.7,2264.681Z" fill="#b99620"/>
          </g>
          <path id="Path_177517" data-name="Path 177517" d="M2928.106,2255.925c1.318-.582,1.928-1.934,2.358-3.373.469-1.572.659-3.206,1.069-4.792a10.891,10.891,0,0,1,2.576-4.814c2.558-2.72,6.015-4.188,8.779-6.585.442-.651.89-1.278,1.335-1.867,2.413-3.194,6.136-4.057,8.1-7.6,3.435-6.211,9.913-14.8,17.519-15.746,7.467-.926,9.8,7.414,13.746,11.891,3.288,3.729,9.609,3.715,12.456,7.722a11.753,11.753,0,0,0,1.625,2.344c1.542,1.317,3.645-.73,4.81-1.684a11.8,11.8,0,0,0,3.085-3.878c.919-1.785,1.674-3.648,2.564-5.447a24.9,24.9,0,0,1,1.935-3.3q.55-.783,1.174-1.511c.328-.383.667-1,1.178-1.148.461-.129,1.246-.3,1.716-.4a5.2,5.2,0,0,1-1.7-.125c-1.13-.257-2.723-.631-3.358-1.707-.324-.548.024-.961.757-1.271a14.939,14.939,0,0,1,8.427-.857,8.886,8.886,0,0,1,3.932,1.681c1.689,1.368,2.236,1.376,4.41,1.869,1.844.419,6,1.469,6.483,3.613a2.4,2.4,0,0,1-1,2.721,2.013,2.013,0,0,1-2.015,1.663c-1.171-.151-2.322-.4-3.488-.579h.028c-.013,0-.027,0-.041,0a.771.771,0,0,0-.173-.016c-.079-.012-.158-.026-.23-.033l-.136-.01a9.126,9.126,0,0,0-1.762,1.321c-2.081,1.8-5.258,3.285-7.685,1.517a46.137,46.137,0,0,1-4.2,11.589,23.663,23.663,0,0,1-2.719,3.914,13.088,13.088,0,0,1-2.847,2.961,18.035,18.035,0,0,1-7.49,2.853,17.387,17.387,0,0,1-5.639.3q-.569.543-1.144,1.077c-.28.261-.564.514-.849.764a67.021,67.021,0,0,1-1.229,9.63,67.413,67.413,0,0,0-1.461,9.6c.007.225.013.451.015.678a11.293,11.293,0,0,1-.054,1.149q0,.341.015.683a1.051,1.051,0,0,1-.205.7c-.082.485-.177.969-.267,1.451a38.438,38.438,0,0,0-.34,7.916,16.764,16.764,0,0,0,.405,4.193c.323,1.169,1.292,2.207,1.426,3.434.17,1.551-5.343,1.366-5.886.405a4.475,4.475,0,0,1-.153-2.956,17.928,17.928,0,0,0,.46-5.691c-.1-2.09-.408-4.165-.7-6.234-.036-.25-.072-.5-.107-.751-.008-.052-.031-.222-.05-.358l-.008-.072c-.015-.131-.027-.261-.036-.392a7.879,7.879,0,0,1-.013-.825c0-.135.02-.27.026-.405.036-.194.071-.388.116-.581.1-.418.218-.83.342-1.241a21.082,21.082,0,0,0,.8-3.508,14.092,14.092,0,0,0-.15-3.857,24.073,24.073,0,0,0-.773-3.624,19.793,19.793,0,0,1,1.2-2.5c1.1-1.533,2.981-3.988,2.981-3.988a7.71,7.71,0,0,0-3.4,3.642c-.356.879-.7,1.744-.987,2.492l-.009-.03c-.293.754-.582,1.527-.858,2.3l-.017.045.006-.015a49.4,49.4,0,0,0-1.753,5.961c-.314,1.457.36,2.785-.055,4.238-.472,1.651-1.625,3-2.142,4.6a20.625,20.625,0,0,0-.464,4.469,23.342,23.342,0,0,0-.006,5.6,13.77,13.77,0,0,0,1.465,3.636c.626,1.336.61,2.005-1.029,2.064l.2-.071a6.9,6.9,0,0,1-1.939.236c-1.84-.128-2.2-1.695-2.211-3.267a2.876,2.876,0,0,1-.075-.32,10.714,10.714,0,0,1,.05-2.359,40.014,40.014,0,0,0-.039-5.006c-.232-3.146-1.688-5.915-.683-9.118a26.079,26.079,0,0,0,.616-10.327c-.109-1.137-.233-2.27-.338-3.4,0-.036-.006-.073-.01-.111-.1-1.143-.187-2.284-.214-3.425h-.036c-.1-1.915-.153-3.544-.153-3.544-.331,1.657-.718,2.812-.744,3.551-.277,0-.277.013-.554.028a12.026,12.026,0,0,0-3.28.7,23.891,23.891,0,0,1-6.385,1.77c-3.8.229-7.213-1.568-10.662-2.862a16.845,16.845,0,0,0-4.63-1.141c-.48-.036-3.188,5.674-3.6,6.27-1.65,2.4-4.124,4.15-5.733,6.484-1.631,2.365-1.3,5.5-1.05,8.2.121,1.326.413,2.693.4,4.026-.012,1.465-.5,2.872-.371,4.36a16.707,16.707,0,0,0,.916,4.138c.22.624,2.153,3.958,1.419,4.284a1.036,1.036,0,0,1-.461.053c-1.45-.053-4.94.435-5.326-1.332-.312-1.427.4-2.909.109-4.315-.124-.607-.245-1.214-.372-1.819-.437-2.085-.121-4.269-.434-6.419a26.728,26.728,0,0,0-1.424-5.534c-.522-1.388-2.06-3.41-1.853-4.906a2.062,2.062,0,0,1,.159-.543c.452-1.017,1.662-1.816,2.3-2.73,1.985-2.865,2.907-6.338,3.682-9.689a48.826,48.826,0,0,1,2.483-8.638c.42-.961.912-1.96,1.45-2.963q-.375.281-.749.557a34.683,34.683,0,0,0-2.855,2.257,8.846,8.846,0,0,0-1.636,1.971c-.194.267-.373.54-.538.81a32.534,32.534,0,0,0-2.12,4.554c-.156.376-.309.753-.465,1.129-.064.156-.129.311-.194.467l-.03.071c-.313.728-.639,1.452-1,2.156a16,16,0,0,1-1.094,1.818l-.057.069c-.087.1-.176.2-.269.3s-.206.206-.315.3c-.111.069-.221.138-.333.205-.068.024-.137.046-.207.064l-.151,0a1.109,1.109,0,0,1-.3-.336A1.159,1.159,0,0,1,2928.106,2255.925Z" fill="#b99620"/>
        </g>
        <path id="Path_177518" data-name="Path 177518" d="M2987.014,2170.43c-.695-1.078-2.2-1.163-3.326-1.995-.508-.374-1.054-2.93-1.583-3.753-3.1-4.819-9.366-7.547-14.978-7.572-8.011-.036-10.844-.654-18.576,1.491,0,0-2.921.85-4.817,1.654a16.916,16.916,0,0,1,3.457-2.456c-.272-.234-.5-.433-.555-.475a9.388,9.388,0,0,0-5.606-1.727,32.841,32.841,0,0,0-8.716,1.077,11.653,11.653,0,0,0-2.4.516c-1.077.524-1.2,1.392.17,1.449a11.153,11.153,0,0,1,6.084,2.134,2.61,2.61,0,0,1,1.144,1.506c.106.89-.578,1.2-1.242,1.606a41.023,41.023,0,0,0-9.533,7.765,35.808,35.808,0,0,0-7.227,33.676,27.475,27.475,0,0,0,2.5,5.173,21.328,21.328,0,0,1-2.586-2.656,24.388,24.388,0,0,0-4.764,4.176,17.506,17.506,0,0,0-2.949,6.659v0c-.135.705.357,3.383,1.348,3.433.681.035,2.5-2.762,3.145-3.3l.007-.006a11.756,11.756,0,0,1,9.383-2.8c1.409.276,2.681,1.542,3.782.5,2.8-2.668-2.845-7.845-4.694-8.99-.85-.527,1.276-5.164,1.579-5.906a34.569,34.569,0,0,1,3.7-6.77,40.026,40.026,0,0,1,21.448-15.238,14.094,14.094,0,0,1,.915-3.722,16.276,16.276,0,0,0,.187,3.429l-.067.276c-.023,1.115.736,5.226,1.182,5.55,2.868,2.08,6.964-5.879,6.636-8.128-.117-.808,5.392-2.2,6.145-2.368a90.846,90.846,0,0,1,19.684-1.946,2.076,2.076,0,0,0,1.176-.245C2987.74,2172,2987.353,2170.955,2987.014,2170.43Z" fill="#5494d3" style="mix-blend-mode: multiply;isolation: isolate"/>
        <g id="Group_56048" data-name="Group 56048" style="mix-blend-mode: multiply;isolation: isolate">
          <path id="Path_177519" data-name="Path 177519" d="M2870.019,2162.659s0-4.063-.941-5.239a1.451,1.451,0,0,1-.89,1.22,28.919,28.919,0,0,0,.168-4.027,6.972,6.972,0,0,0-.41-1.614,3.374,3.374,0,0,1-.294-.677l-.882,1.419c.544-2.431-1.756-6.338-1.756-6.338l-.487,1.962c.436-1.761-1.2-3.79-2.2-5.089-.879-1.144-2.695-3.195-4.335-2.221a7.469,7.469,0,0,1,1.808,3.626c.449,2.085-.273,3.772-.793,5.725a33.055,33.055,0,0,0-.859,12.719c.452,2.952,2.252,5.326,4.207,7.494a18.009,18.009,0,0,1,2.989,4.525l1.077.312s.2-.335-.268-1.39c-.6-1.378-1.868-3.649-1.925-4.6C2864.006,2166.724,2868.76,2163.757,2870.019,2162.659Z" fill="#e83880"/>
          <path id="Path_177520" data-name="Path 177520" d="M2889.485,2162.991c1.659-2.88,5.474-8.383,3.121-11.774a10.008,10.008,0,0,1-2.141,4.643c-.113.127-.227.253-.34.381a19.658,19.658,0,0,0,1.211-5.795,17.979,17.979,0,0,0-.451-4.991,17.512,17.512,0,0,0-.659-2.3c-.074-.2-.831-1.321-.829-1.418a19.232,19.232,0,0,1-1.912,6.989c-.593,1.377-1.978,3.011-2.3,4.422,3.43-14.976-1.175-17.813-1.175-17.813a.863.863,0,0,0-.1.413,69.9,69.9,0,0,1-.564,7.507,4.674,4.674,0,0,0-1.5-1.59,9.549,9.549,0,0,1,0,2.2,17.128,17.128,0,0,1-.709,4.272,30.833,30.833,0,0,1-4.979,10.508,20.573,20.573,0,0,1-5.03,4.193c-2.866,2.011-6.645,4.651-5.942,8.672.223,1.273,1.191,2.217,1.709,3.362a2.786,2.786,0,0,1,.283,1.775c-.262,1.146-1.825.449-2.481.139-1.373-.649-2.7-1.332-4.108-1.921a19.637,19.637,0,0,0-2.731-.894,10.108,10.108,0,0,0-2.709-.5c-.535.018-1.8.144-1.668.863l-.033.014a2.894,2.894,0,0,0-1.956,1.7c.834.065,1.581-.425,2.317.068a5.138,5.138,0,0,1,1.17,1.622,7.518,7.518,0,0,0,2.27,2.378c2.005,1.315,4.416,1.817,6.689,2.461a39.286,39.286,0,0,1,7.747,2.825c2.268,1.2,3.893,3.053,5.787,4.666a8.056,8.056,0,0,1,1.075-.99c-.348-.447-.677-.89-.553-.813a7.376,7.376,0,0,0,1,.494c.1.042.641-.427.745-.493a4.6,4.6,0,0,1,1.5-.6c.264-.057,1.543-.359,1.74-.16a11.287,11.287,0,0,0-1.441-1.228,9.7,9.7,0,0,1,2.993,1.249h.146c1.39,0,2.78.017,4.17.022h.129c-1.069-2.137-5.071-3.631-7.172-4.266a15.317,15.317,0,0,0-5.08-.759,5.479,5.479,0,0,0,2.778-1.493c.5-.394,1.022-.77,1.535-1.154l-.83-1.2,1.617.6c.113-.089.226-.18.338-.272a24.448,24.448,0,0,0,1.992-1.83l-1.38-.567,2.066-.169a21.821,21.821,0,0,0,1.894-2.45c.448-.677.915-1.373,1.373-2.085l-1.911-.429,2.647-.745a19.977,19.977,0,0,0,2.474-5.5c.063-.261.107-1.006.3-1.193-.583.573-2.776,1.3-3.982,2Q2888.594,2164.531,2889.485,2162.991Z" fill="#e83880"/>
        </g>
        <g id="Group_56049" data-name="Group 56049" style="mix-blend-mode: multiply;isolation: isolate">
          <path id="Path_177521" data-name="Path 177521" d="M3022.967,2267.216a14.485,14.485,0,0,1,1.152-4.164c1.239-2.415,2.132-4.766,1.419-7.459a20.78,20.78,0,0,1-.86-3.691.941.941,0,0,0-1.739-.471,18.9,18.9,0,0,0-2.06,6.968c-.052.393-.641,4.913-.9,6.3A9.583,9.583,0,0,1,3022.967,2267.216Z" fill="#ed8383"/>
          <path id="Path_177522" data-name="Path 177522" d="M3025.133,2271.522c-.055-.133-.112-.264-.171-.394a17.022,17.022,0,0,0-1.024-1.93h0c-.07-.1-.141-.189-.211-.282-.2-.245-.474-.556-.657-.816a16.391,16.391,0,0,0-3.26-3.012l-.01-.016,0,0a13.875,13.875,0,0,1-2.477-4.45,31.239,31.239,0,0,0-2.591-5.919,9.469,9.469,0,0,0-2.549-2.671.946.946,0,0,0-1.371.558,6.554,6.554,0,0,0,.034,3.271c.147,1.089-.124,2.294,0,3.426a4.791,4.791,0,0,0,1.638,3.069c.767.705,1.648,1.256,2.4,1.98.468.453.93.919,1.367,1.405-.105-.117-.253-.023-.419.191a4.531,4.531,0,0,0-.992.937,4.261,4.261,0,0,0-.742,1.109,7.564,7.564,0,0,0-.736,2.781c-.859.214-1.935-.671-2.619-1.043a24.713,24.713,0,0,0-7.506-2.927,12.981,12.981,0,0,0-8.047,1.007c-4.718,2.431-5.7,7.61-5.934,12.419-1.05.166-1.032-1.719-.931-2.828a5.65,5.65,0,0,0-3.39,6.188,4.108,4.108,0,0,0,.7,1.475,3.352,3.352,0,0,0,1.484,2.812,2.136,2.136,0,0,0,1.439.231,1.307,1.307,0,0,0,.139.18,1.65,1.65,0,0,0,1.211.482,2.055,2.055,0,0,0,1.616-.709,2.105,2.105,0,0,0,1.618,1.93,12.69,12.69,0,0,0,4.392.5c2,.022,6.914.455,8.025-1.632a1.8,1.8,0,0,0,.208-1.015h0c-.294-1.455-3.872-.113-3.872-.113,2.6-1.894,4.544-.758,4.541.069.5-.047,1-.12,1.493-.191-.51-1.28-.047-4.194,1.593-4.53a5.4,5.4,0,0,0-1.079,4.46l.036-.005c.036,0,.167,1.146.266,1.309a2.733,2.733,0,0,0,1.585,1.009,22.035,22.035,0,0,0,6.014.95,5.112,5.112,0,0,0,2.538-.338,1.148,1.148,0,0,0,.118-1.9,6.253,6.253,0,0,0-1.737-.923c-.527-.219-1.064-.413-1.6-.623-.018-.006-.063-.025-.1-.04-.13-.066-.265-.137-.387-.211h0a25.225,25.225,0,0,0,2.923-2.232c.389-.379.763-.776,1.121-1.183a11.543,11.543,0,0,0,2.689-4.72.53.53,0,0,1,.454-.742,3.542,3.542,0,0,0,.507-.059,5.66,5.66,0,0,0,.888.03,2.346,2.346,0,0,0,1.1-.248C3026.9,2276.454,3025.8,2273.12,3025.133,2271.522Z" fill="#ed8383"/>
          <path id="Path_177523" data-name="Path 177523" d="M3019.288,2285.5a10.274,10.274,0,0,0-1.121-.47,6.144,6.144,0,0,1-2.418,1.574,13.961,13.961,0,0,0,1.731.554,4.855,4.855,0,0,1,2.046.9.937.937,0,0,0,1.466-1.13A3.432,3.432,0,0,0,3019.288,2285.5Z" fill="#ed8383"/>
        </g>
        <g id="Group_56051" data-name="Group 56051" style="mix-blend-mode: multiply;isolation: isolate">
          <g id="Group_56050" data-name="Group 56050">
            <path id="Path_177524" data-name="Path 177524" d="M2913.883,2271.126c-.21-.206-.4-.428-.6-.642-.034-.036-.058-.06-.078-.08s-.034-.055-.06-.094a14.116,14.116,0,0,1-.769-1.3c-.127-.248-.239-.5-.361-.754-.028-.058-.047-.1-.061-.124s-.026-.072-.046-.128c-.2-.535-.382-1.071-.543-1.619-.624-2.114-.892-4.3-1.334-6.454a48.5,48.5,0,0,0-2.06-7.255c-.333-.888-.676-1.774-.982-2.673a29.57,29.57,0,0,1-1.327,3.06,15.7,15.7,0,0,1-2.71,4.135c-1.941,2.079-2.808,2.558-3.063,5.533-.033.392-.069.793-.1,1.2a14.694,14.694,0,0,0,2.266,1.668c.668.393,1.357.747,2.018,1.152.12.073.239.149.357.225.5.726.977,1.466,1.492,2.178.361.5.744.982,1.114,1.475-.007-.008.093.13.135.193.137.206.271.411.4.623.365.6.685,1.235,1,1.867a2.942,2.942,0,0,0-.055.537,36.968,36.968,0,0,1-1.39,8.27c-.066.282-.128.563-.211.84-.035.115-.206.489-.193.481-.085.157-.171.314-.255.473l-.027.053-.03.029c-.121.125-.242.248-.364.371-.06.048-.218.184-.292.231a5.867,5.867,0,0,1-.545.307c.1-.06-.5.187-.6.217a2.749,2.749,0,0,0-1.809,3.311,2.619,2.619,0,0,0,3.185,1.88,8.689,8.689,0,0,0,5.953-6.026,43.012,43.012,0,0,0,1.71-9.129,2.3,2.3,0,0,0,.228-.22A2.813,2.813,0,0,0,2913.883,2271.126Z" fill="#f4c708"/>
          </g>
          <path id="Path_177525" data-name="Path 177525" d="M2946.42,2267.2a8.962,8.962,0,0,1-1.647-2.364s.412-.576,1.071,0c-.117-2.775-5.012-3.284-6.957-3.4-.783-.049-2.276-1.326-3.118-1.63a20.631,20.631,0,0,0-3.65-.9c-2.545-.423-5.13-.534-7.675-.952a14.754,14.754,0,0,1-6.876-2.592c-2.157-1.727-3.454-4.479-4.724-6.866-.816-1.532-1.614-3.076-2.415-4.615a40.722,40.722,0,0,0-4.114-5.7l-.071-.091a8.739,8.739,0,0,0-4.052-3.539,33.706,33.706,0,0,0-4.285-1.844q-.422-.245-.865-.448a17.033,17.033,0,0,0-7.608-1.381,57.384,57.384,0,0,0-7.48.869c-1.606.256-2.2.356-3.691.506-1.842.184-3.691.287-5.541.343q-.853.026-1.709.038l-.371-.044c-1.878-.212-3.756-.325-5.639-.468.017,0-.352-.046-.491-.06l-.328-.062c-.335-.069-.667-.152-1-.245-.853-.24-1.684-.551-2.511-.865-.416-.158-.825-.31-1.233-.455a60.559,60.559,0,0,0-8.044,1.216s1.787-1.38,7.925-1.932a.907.907,0,0,0-.227-.646,22.969,22.969,0,0,0-2.533-2.082c-2.142-1.832-5.264-2.763-6.809-5.133-.025-.039-.049-.079-.072-.118-1.793-1.907-3.075-4.155-5.034-5.927a20.051,20.051,0,0,0-13.118-5.015l2.214,1.512-3.5-1.547a3.389,3.389,0,0,1-.942-.215c-.826-.229-2.067-.642-2.306-.661a3.129,3.129,0,0,0-2.642,1.044l3.618,1.693-3.972-1.112a37.468,37.468,0,0,0-5.667-.03c-.7.067-4.1,1.243-4.159,2.394,1.5.579,4.507,2.2,4.749,5.878-1.96.5-3.913,1.6-4.528,3.566a1.617,1.617,0,0,0-.022.973l-3.359,3.1a6.3,6.3,0,0,0-1.429,1.667,3.763,3.763,0,0,0,1.088,4.337,2.958,2.958,0,0,0,.574.4,2.54,2.54,0,0,0,.824,1.795,3.2,3.2,0,0,0,2.927.759c.611-.217,1.118-.639,1.719-.872a7.65,7.65,0,0,1,2.157-.262c-.136.422-.266.846-.38,1.274a20.662,20.662,0,0,0-.4,9.393,19.829,19.829,0,0,0,4.363,7.96,15.532,15.532,0,0,0,1.214,1.283c.648.822,1.339,1.612,2.03,2.4.21.239.436.483.673.731,1.2,2.43,3.269,6.966,3.269,9.307a10.839,10.839,0,0,0,2.322-2.431l.027.15c0,.221.013.443.02.664.248,1.2.435,2.4.649,3.556.7,3.785,2.079,7.454,2.23,11.334.05,1.293.167,4.059-.972,4.99-.609.5-1.839.366-2.581.886-.722.506-2.583,2.8-1.194,3.615.526,1.694,2.331,1.82,3.88,1.56a8.523,8.523,0,0,0,4.554-1.98,8.63,8.63,0,0,0,2.023-5.462c.217-2.411.051-4.841.233-7.258a84.973,84.973,0,0,1,1.382-9.867,19.32,19.32,0,0,0-4.16-3.418s2.242-.168,4.749,2.7c.036.014.071.028.108.04.143.209.289.418.435.625.268.351.537.738.806,1.166.176.266.341.528.486.786a36.1,36.1,0,0,1,2.47,5.248c1.514,4.109,1.439,9.226-1.6,12.643-1.692.137-3.886,1.1-4.27,2.7a.73.73,0,0,0-.122.455c.1,2.574,4.225,2.291,5.909,2.1a12.294,12.294,0,0,0,3.776-.868c2.143-1.019,3.546-4.8,4.153-6.928a16.133,16.133,0,0,0,.345-6.952c-.317-2.164-.923-4.313-1.468-6.572a40.273,40.273,0,0,1-.8-4.447v0s-1.148-4.578-.371-7.247a30.016,30.016,0,0,0,2.11,7.352,39.413,39.413,0,0,0,11.89-.774,46.193,46.193,0,0,0,9.452-3.96c1.425-.728,2.839-1.477,4.266-2.2.693-.35,1.388-.694,2.09-1.025q.5-.234,1-.46c.185-.084.372-.164.557-.247l.109-.05.094-.037q.711-.29,1.433-.552c-1.311-1.819-3.069-4.743-2.406-6.6.466,2.792,3.165,5.352,3.979,6.069.028-.009.056-.019.084-.027.791,1.2,1.607,2.4,2.281,3.662a25.038,25.038,0,0,1,1.995,4.68,26.536,26.536,0,0,1,.681,2.6q.131.623.227,1.251c.012.075.048.363.056.411.024.224.045.447.061.671a21.055,21.055,0,0,1,.007,3.095,18.608,18.608,0,0,1-.417,2.554c-.213,1.064-.412,2.133-.656,3.19a27.343,27.343,0,0,1-.832,2.91,26.916,26.916,0,0,1-1.745,3.721c-.147.255-.3.5-.466.747-.024.032-.049.064-.069.087-.112.124-.226.248-.338.373a.077.077,0,0,1,.049.006c-.019-.01-.056.015-.1.052l-.039.043-.009.01-.016,0-.026.023-.025,0,.011-.014q-.357.06-.715.112c-1.27.186-2.006,1.835-1.855,3.041a2.684,2.684,0,0,0,2.543,2.4,3.964,3.964,0,0,0,1.767-.27c3.061-.53,6.376-1.593,7.086-5.255a48.846,48.846,0,0,0,.753-6.08c.015-.235.033-.47.045-.706l0-.092c.051-.291.12-.572.194-.859.074-.15.146-.3.228-.448a3.136,3.136,0,0,0,.226-.369,1.647,1.647,0,0,0,.656-.732,4.6,4.6,0,0,0,.474-1.83,8.158,8.158,0,0,0-.436-2.652c-.014-.058-.026-.106-.036-.147a.8.8,0,0,0-.007-.135c-.023-.244-.039-.489-.052-.734-.023-.45-.029-.9-.032-1.349q-.011-1.637.015-3.274c.056-3.488-.318-6.937,2.113-9.73,2.962-3.4,5.26-7,6.032-11.553a22.736,22.736,0,0,0,.319-2.822c2.224,3.454,3.673,7.443,6.137,10.747a14.878,14.878,0,0,0,5,4.2,22.117,22.117,0,0,0,8.357,2.218c1.476.14,2.948.1,4.424.178a14.51,14.51,0,0,1,3.853,1.055,4.612,4.612,0,0,1,2.2,1.4c.713.886.945,2.048,1.81,2.854a5.8,5.8,0,0,0,.9.681,7.929,7.929,0,0,0,5.315,1.049,7.634,7.634,0,0,1-1.839-1.116c.032-.028.063-.056.094-.086A6.116,6.116,0,0,0,2946.42,2267.2Zm-124.077-41.7h-2.72l2.72-1.1h1.412Zm75.431,53.317a2.334,2.334,0,0,1,.444-.425C2898.122,2278.536,2897.551,2279.091,2897.774,2278.82Z" fill="#f4c708"/>
        </g>
      </g>
    </g>
  </g>
</svg>
