<svg xmlns="http://www.w3.org/2000/svg" width="294" height="278" viewBox="0 0 294 278">
  <g id="Group_56077" data-name="Group 56077" transform="translate(-1294 -782)">
    <g id="Group_56076" data-name="Group 56076" transform="translate(-1482.034 -1651.915)">
      <rect id="Rectangle_34836" data-name="Rectangle 34836" width="294" height="278" transform="translate(2776.034 2433.915)" fill="#fff"/>
      <g id="Group_56075" data-name="Group 56075">
        <g id="Group_56062" data-name="Group 56062">
          <path id="Path_177684" data-name="Path 177684" d="M2988.317,2608.622s-2.077,8.474-3.626,9.8-6.6,3.875-5.277,4.149,11.1.5,10.832-1.13-.549-2.671-.549-2.671l2.587-6.052Z" fill="#f47458"/>
          <path id="Path_177685" data-name="Path 177685" d="M2978.757,2622.923a88.2,88.2,0,0,0,11.377.228s.38-.075.112-1.706c-.065-.4-.131-.762-.194-1.083-1.84.483-5.848-.546-7.435-.757-1.725.826-3.669,2.059-4.3,2.162C2977.413,2621.916,2977.414,2622.789,2978.757,2622.923Z" fill="#13375b"/>
          <path id="Path_177686" data-name="Path 177686" d="M3011.121,2615.726s.218,2.144.218,3.088-.88,3.609-.472,4.017,12.055.357,12.055-.026-2.058-1.547-4.856-2.346a4.506,4.506,0,0,1-3.021-5.677Z" fill="#f47458"/>
          <path id="Path_177687" data-name="Path 177687" d="M3023.11,2622.831c0-.357-1.91-1.455-4.384-2.211-2.636.891-6.3.156-7.669-.107-.42,1.1-.555,2.14-.338,2.356C3011.126,2623.277,3023.11,2623.214,3023.11,2622.831Z" fill="#13375b"/>
          <path id="Path_177688" data-name="Path 177688" d="M2998.478,2579.905l-2.089,1.853s-2.351,6.367-2.489,6.787c-.19.585-7.808,25.132-7.808,25.132l5.307,1.91s5.263-10.251,6.135-13.812,9.591-18.455,9.591-18.455Z" fill="#86b1f2"/>
          <path id="Path_177689" data-name="Path 177689" d="M3007.706,2583.683l2.543,32.535h5.886s2.107-24.349,1.38-32.9Z" fill="#86b1f2"/>
          <path id="Path_177690" data-name="Path 177690" d="M2976.171,2561.013s1.789,8.743,3.359,10.313c.893.894,3.328,4.51,5.2,4.51,1.491,0,2.379.109,2.629.109.581,0-.073,3.56-.618,4.1,0,0-.181.545-1.271.545s-6.867-3.96-8.61-5.7-4.978-11.262-4.978-11.262Z" fill="#f7a491"/>
          <path id="Path_177691" data-name="Path 177691" d="M3004.872,2550.041a81.682,81.682,0,0,0-5.231,7.048c-2.979,4.433-10.593,16.738-11.408,17.553a7.533,7.533,0,0,1-.815.594,3.894,3.894,0,0,0-1.644-.018c-.562.207-1.319,1.3-1.053,1.562s1.294-.623,1.608-.614.342.009.342.178a4.848,4.848,0,0,1-1.635.969c-.363.1-1.321,1.569-1.138,2.059s.169.654.629.654.533.363.921.363.484-.484.92-.291.557.146,1.913-.678,3.888-3.887,5.159-5.159,12.885-13.926,12.885-13.926Z" fill="#f47458"/>
          <path id="Path_177692" data-name="Path 177692" d="M3009.8,2530.556a3.912,3.912,0,0,0-4.566,1.805c-1.792,2.809-.823,2.543-1.7,3.947s-3.148,1.115-3.148,3.294,1.017,2.519,1.017,2.519a3.71,3.71,0,0,0,.1,3.44,6.476,6.476,0,0,0,5.676,3,9.827,9.827,0,0,0,6.385.922c3.2-.825,2.083-.825,3.391-.825s4.844-1.793,4.263-4.408c0,0,2.154-2.56.064-4.651s-2.486-4.214-3.7-7.023S3011.254,2529.878,3009.8,2530.556Z" fill="#184655"/>
          <path id="Path_177693" data-name="Path 177693" d="M2970.358,2549.051a7.9,7.9,0,0,1,3.077,3.231c.981,1.889,3.572,9.785,3.572,9.785l-4.264,1.562Z" fill="#50bfa5"/>
          <path id="Path_177694" data-name="Path 177694" d="M2948.9,2614.152a11.74,11.74,0,0,1-1.259,3.052c-.557.557-2.4,2.719-1.95,3.79s11.708,2.607,12.135,2.18-1.944-2.234-3.288-3.342-2.307-2.471-1.744-4.124a10.273,10.273,0,0,0,.563-1.653A40.723,40.723,0,0,0,2948.9,2614.152Z" fill="#f7a491"/>
          <path id="Path_177695" data-name="Path 177695" d="M2957.825,2623.174c.509-.382-1.072-2.089-3.363-3.405a14.537,14.537,0,0,1-3.322-.337,7.047,7.047,0,0,1-3.382-2.37c-.035.049-2.763,2.676-2.231,3.932C2945.981,2622.066,2956.807,2623.937,2957.825,2623.174Z" fill="#355389"/>
          <path id="Path_177696" data-name="Path 177696" d="M2967.571,2615.363s.208,2.562-.214,3.228-1.9,3.3-1.076,4.124c.742.742,11.051.265,11.374-.244s-1.44-2.032-2.994-2.82-2.79-1.908-2.6-3.644a10.445,10.445,0,0,0,.189-1.736A46.951,46.951,0,0,0,2967.571,2615.363Z" fill="#f7a491"/>
          <path id="Path_177697" data-name="Path 177697" d="M2978.936,2622.881c.537-.341-1.839-2.49-4.362-3.275a14.558,14.558,0,0,1-3.315.4,7.045,7.045,0,0,1-3.818-1.576c-.024.056-2.372,3.457-1.319,4.325C2966.943,2623.428,2978.119,2623.4,2978.936,2622.881Z" fill="#355389"/>
          <path id="Path_177698" data-name="Path 177698" d="M2968.324,2579.081l-6.656,19.285-7.634,17.852-6.394-1.606s2.308-12.375,4.475-16.262c1.641-2.942,2.786-19.822,2.786-19.822Z" fill="#f47458"/>
          <path id="Path_177699" data-name="Path 177699" d="M2965.128,2582.327l2.306,33.891h5.449s2.381-35.508,1.509-38.886-9.951-2.616-9.951-2.616Z" fill="#b75742"/>
          <path id="Path_177700" data-name="Path 177700" d="M2970.358,2549.051s-7.023-2.1-8.1-1.968a19.794,19.794,0,0,0-4.061,1.673s.177,12.192-.332,15.64-4.069,14.491-4.069,14.491,5.014,2.907,13.442,1.962,7.847-2.979,7.847-2.979-.8-12.207-1.6-17.584A59.583,59.583,0,0,0,2970.358,2549.051Z" fill="#96d9c9"/>
          <path id="Path_177701" data-name="Path 177701" d="M2955.439,2560.335v7.508c0,1.308,1.5,10.163,3.342,13.2s4.336,6.415,4.853,6.609,1.638.9,2.22.323,1.041-.315,1.768-.63-.1-1.356-1.114-2.373-1.236-1.26-1.066-1.429.993.775,1.429.63-.266-1.672-1.405-2.205-2.955-1.574-3.124-2.131-.17-.412-.17-.557-1.284-8.937-1.284-10.657-.508-7.314-.508-7.314Z" fill="#f7a491"/>
          <path id="Path_177702" data-name="Path 177702" d="M3018.024,2550.913a45.394,45.394,0,0,0-7.993-1.217,29.892,29.892,0,0,0-5.159.345,54.027,54.027,0,0,0-3.487,10.972c-.8,4.941-5.159,20.781-5.159,20.781s8.864,6.83,21.8,2.325Z" fill="#f7a491"/>
          <path id="Path_177703" data-name="Path 177703" d="M3018.024,2550.913s-1.019,1.021-2.109,4.892-1.645,12.934-2.59,13.879-7.121,5.861-8.235,5.692-3.609-3.076-4.384-3.076-.678.7-.29,1.09.859.835.629,1.065l-.23.23s-3.451-.908-4.032-.569.557,1.138.557,1.72a6.684,6.684,0,0,0-.073,1.211,2.417,2.417,0,0,0,.533,1.453,15.943,15.943,0,0,0,7.847.9,18.066,18.066,0,0,0,11.65-6.467c3.367-4.165,2.693-17.259,2.616-18.564C3019.719,2551.059,3018.024,2550.913,3018.024,2550.913Z" fill="#f47458"/>
          <path id="Path_177704" data-name="Path 177704" d="M3007.948,2545.512s.117,3.858-.246,4.22a1.409,1.409,0,0,0-.335,1.884c.533.92,2.846.333,3.924-.194a5.1,5.1,0,0,0,1.7-1.447l-.54-6.11Z" fill="#f47458"/>
          <path id="Path_177705" data-name="Path 177705" d="M3009.486,2547.111a5.41,5.41,0,0,0,3.043-2.39l-.076-.856-4.5,1.647s.029.941.014,1.938A5.167,5.167,0,0,0,3009.486,2547.111Z" fill="#b75742"/>
          <path id="Path_177706" data-name="Path 177706" d="M2958.873,2548.457a3.973,3.973,0,0,0-3.083,2.868c-.63,2.131-2.289,8.186-2,11.141,0,0,7.072.921,7.072.63s1.547-7.872.775-11.19C2960.966,2549.012,2960.021,2548.314,2958.873,2548.457Z" fill="#50bfa5"/>
          <path id="Path_177707" data-name="Path 177707" d="M2947.1,2531.947a2.009,2.009,0,0,0,1.419,2.318c1.789.6,2.9-5.693,3.918-6.937s4.1-1.584,5.708.9a10.258,10.258,0,0,1,1.227,2.219c.057.211-.024.2-.024.2l-.484.9a1.381,1.381,0,0,0-2.139.779c-.586,1.721,1.142,4.537-.339,6.874s-4.2.685-4.2.685c-2.252,1.513-4.844-.8-5.677-2.984S2947.1,2531.947,2947.1,2531.947Z" fill="#f7cc7f"/>
          <path id="Path_177708" data-name="Path 177708" d="M2964.762,2540.661l-.245,2.53-2.263,3.892s4.462,5.4,5.84,4.111c.308-.288,1.084-6.006,1.084-6.006Z" fill="#f7a491"/>
          <path id="Path_177709" data-name="Path 177709" d="M2964.517,2543.191l-.473.864a16.5,16.5,0,0,0,4.863,3.019c.158-1.049.271-1.886.271-1.886l-4.416-4.527Z" fill="#f48c7f"/>
          <path id="Path_177710" data-name="Path 177710" d="M2969.357,2532.35a15.844,15.844,0,0,1,1.613,1.674c2.581,3.595.491,10.684-.857,11.274-2.039.892-4.693-.308-7.685-2.336s-3.936-5.315-1.2-8.171S2969.357,2532.35,2969.357,2532.35Z" fill="#f7a491"/>
          <path id="Path_177711" data-name="Path 177711" d="M2959.432,2531.717l.815-.781c3.195,0,5.743-1.926,9.329.011,2.367,1.279,1.394,3.077,1.394,3.077-8.765,0-5.6,6.908-6.677,9.657S2956.517,2540.485,2959.432,2531.717Z" fill="#f7cc7f"/>
          <path id="Path_177712" data-name="Path 177712" d="M2965.563,2539.5s-.124-2.267-1.514-1.818-.307,3.866.847,3.746S2965.563,2539.5,2965.563,2539.5Z" fill="#f7a491"/>
          <path id="Path_177713" data-name="Path 177713" d="M3013.247,2539.5s.109-2.268,1.5-1.828.331,3.863-.823,3.751S3013.247,2539.5,3013.247,2539.5Z" fill="#f47458"/>
          <path id="Path_177714" data-name="Path 177714" d="M2959.2,2530.008a4.969,4.969,0,0,0,1.853.751c.532-.069-.815,1.658-1.529,1.837s-.463-.508-.614-.744-.707-.052-.835-.226C2957.784,2531.229,2958.578,2530.083,2959.2,2530.008Z" fill="#50bfa5"/>
          <path id="Path_177715" data-name="Path 177715" d="M2983.832,2579.905s1.222-1.889,1.622-1.98-.091,1.289-.091,1.544.727-1.944,1.126-1.944.454.291.291.854-.545,1.29-.364,1.29.7-2.444,1-2.144a3.508,3.508,0,0,1-.382,2.864C2986.468,2580.955,2984.8,2580.6,2983.832,2579.905Z" fill="#f7a491"/>
          <path id="Path_177716" data-name="Path 177716" d="M3005.554,2565.269a1.088,1.088,0,0,0,1.374-.552,1.11,1.11,0,0,0-.367-1.573,1.079,1.079,0,0,0-1.429.619A1.091,1.091,0,0,0,3005.554,2565.269Zm-3.4-4.165a1.658,1.658,0,0,1,1.812-.728c.877.291,1.222,1.194,1.47,1.6a4.459,4.459,0,0,1-.043-1.923c.517-2.138,3.134-1.946,3.087.037a1.112,1.112,0,1,0,.612.988c1.931-.994,2.969,1.43,1.6,2.718a3.411,3.411,0,0,1-2.153.747,3.737,3.737,0,0,1,1.226.469c2.414,1.53-.944,5.66-2.759,1.684,0,0-.011,0-.017-.007a4.451,4.451,0,0,1,.011,2.048c-.628,2.158-3.5,1.779-3-.664a6.09,6.09,0,0,1,.694-1.635,4.516,4.516,0,0,1-1.594,1.27c-1.9.744-2.807-1.941-1.056-3.072a4.1,4.1,0,0,1,1.836-.506,2.884,2.884,0,0,1-1.7-.884,1.748,1.748,0,0,1-.3-1.562Q3002.014,2561.395,3002.151,2561.1Z" fill="#fae0b2"/>
          <path id="Path_177717" data-name="Path 177717" d="M3008.869,2532.094a4.118,4.118,0,0,0-3.294,1.647c-1.115,1.7-2.326,6.54-.485,9.882s4.19,2.519,5.159,2.18a5.764,5.764,0,0,0,3.851-4.215C3015.069,2538.464,3014.367,2531.44,3008.869,2532.094Z" fill="#f47458"/>
        </g>
        <path id="Path_177718" data-name="Path 177718" d="M3014.151,2502.247l2.831-.563.689-2.859,3.219-.407-.206-3.274,3.62-.621.182-3.037,3.383-1.166.446,1.28-2.53.872-.192,3.2-3.479.6.21,3.329-3.552.449-.673,2.792-2.624.522-.058,1.927-1.355-.045Z" fill="#50bfa5"/>
        <path id="Path_177719" data-name="Path 177719" d="M2986.089,2504.188l1.687-3.089-1.588-3.141a.483.483,0,0,1,.521-.693l3.459.65,2.5-2.481a.484.484,0,0,1,.82.282l.45,3.49,3.131,1.608a.483.483,0,0,1-.014.867l-3.18,1.507-.562,3.474a.483.483,0,0,1-.829.255l-2.416-2.559-3.478.539A.483.483,0,0,1,2986.089,2504.188Z" fill="#f47458"/>
        <g id="Group_56071" data-name="Group 56071">
          <path id="Path_177720" data-name="Path 177720" d="M2812.328,2491.617a3.543,3.543,0,1,1,3.78,3.289A3.543,3.543,0,0,1,2812.328,2491.617Z" fill="#f7cc7f"/>
          <g id="Group_56063" data-name="Group 56063">
            <path id="Path_177721" data-name="Path 177721" d="M2818.336,2501.623a23.478,23.478,0,0,0-.69-3.119.809.809,0,0,0-1.563.323,25.264,25.264,0,0,0,.667,3.354.847.847,0,0,0,1.072.514.863.863,0,0,0,.514-1.072Z" fill="#f7cc7f"/>
          </g>
          <g id="Group_56064" data-name="Group 56064">
            <path id="Path_177722" data-name="Path 177722" d="M2824.409,2497.233a34.939,34.939,0,0,1-3.282-2.369.81.81,0,0,0-1.063,1.221,15.413,15.413,0,0,0,3.58,2.692.87.87,0,0,0,1.155-.39.879.879,0,0,0-.39-1.154Z" fill="#f7cc7f"/>
          </g>
          <g id="Group_56065" data-name="Group 56065">
            <path id="Path_177723" data-name="Path 177723" d="M2822.185,2490.89a.609.609,0,0,0-.155.818c.4.72,1.405.684,2.121.66a7.656,7.656,0,0,0,2.2-.418.859.859,0,0,0-.57-1.62C2823.732,2491.03,2822.956,2490.271,2822.185,2490.89Z" fill="#f7cc7f"/>
          </g>
          <g id="Group_56066" data-name="Group 56066">
            <path id="Path_177724" data-name="Path 177724" d="M2821.056,2484c-1.031,1.509-1.874,2.018-1.742,2.848a.713.713,0,0,0,.929.611c.554-.125.855-.713,1.188-1.125.318-.4.63-.791.915-1.212a.883.883,0,0,0-.084-1.206.861.861,0,0,0-1.206.084Z" fill="#f7cc7f"/>
          </g>
          <g id="Group_56067" data-name="Group 56067">
            <path id="Path_177725" data-name="Path 177725" d="M2817.039,2483.739a3.772,3.772,0,0,0-.83-1.672.742.742,0,0,0-1.208.411,3.6,3.6,0,0,0,.418,1.831.859.859,0,0,0,1.62-.57Z" fill="#f7cc7f"/>
          </g>
          <g id="Group_56068" data-name="Group 56068">
            <path id="Path_177726" data-name="Path 177726" d="M2812.7,2485.952c-1.486-1.129-1.789-1.447-2.373-1.386a.707.707,0,0,0-.652.749c.139.714.554.908,1.921,1.906a.864.864,0,0,0,1.186-.083.848.848,0,0,0-.082-1.186Z" fill="#f7cc7f"/>
          </g>
          <g id="Group_56069" data-name="Group 56069">
            <path id="Path_177727" data-name="Path 177727" d="M2806.728,2491.129a.786.786,0,0,0,.284,1.407c.608.079.843-.019,3.794-.557a.885.885,0,0,0,.8-.916.864.864,0,0,0-.916-.8C2807.622,2490.82,2807.315,2490.817,2806.728,2491.129Z" fill="#f7cc7f"/>
          </g>
          <g id="Group_56070" data-name="Group 56070">
            <path id="Path_177728" data-name="Path 177728" d="M2811.351,2495.957c-1.617,1.565-1.854,1.289-2.493,2.246a.726.726,0,0,0,.7,1.042,3.054,3.054,0,0,0,1.678-.9c.495-.392.967-.812,1.421-1.249a.873.873,0,0,0-.084-1.221.885.885,0,0,0-1.221.085Z" fill="#f7cc7f"/>
          </g>
        </g>
        <path id="Path_177729" data-name="Path 177729" d="M3038.815,2509.235l-3.374.1-.25,2.486-3.325.21-.608,2.367-2.476.478.244.98,3.312-.639.576-2.243,3.459-.218.246-2.445,3.057-.086Z" fill="#f7cc7f"/>
        <path id="Path_177730" data-name="Path 177730" d="M2849.094,2496.881l-5.219-.113-1.939-4.951,1.3-.508,1.6,4.087,5.392.116,1.265,5.9,3.594-.365.025,1.4-4.719.479Z" fill="#50bfa5"/>
        <path id="Path_177731" data-name="Path 177731" d="M2883.182,2506.789c-.366,2.885,2.638,5.175,5.31,4.994a6.575,6.575,0,0,0,5.891-5.524c.468-3.142-1.42-5.654-4.341-5.884a3.643,3.643,0,0,0-3.84,4.859c.589,1.831,2.26,2.513,3.1,2.008a.837.837,0,0,0-.178-1.562.822.822,0,0,0-.816.352,2.4,2.4,0,0,1-.908-2.909c.574-1.746,2.781-1.846,4.152-1.031,1.745,1.036,2.019,3.268,1.379,5.046a5.369,5.369,0,0,1-4.5,3.48,4.184,4.184,0,0,1-4.433-3.826A.408.408,0,0,0,2883.182,2506.789Z" fill="#86b1f2"/>
        <path id="Path_177732" data-name="Path 177732" d="M2964.882,2489.432c-.281-2.894-3.718-4.462-6.283-3.694a6.576,6.576,0,0,0-4.522,6.692c.24,3.167,2.637,5.2,5.536,4.777a3.644,3.644,0,0,0,2.669-5.59c-.98-1.654-2.76-1.95-3.469-1.271a.837.837,0,0,0,.519,1.484.82.82,0,0,0,.717-.524,2.4,2.4,0,0,1,1.53,2.636c-.173,1.829-2.3,2.415-3.82,1.925-1.931-.624-2.693-2.74-2.462-4.616a5.366,5.366,0,0,1,3.619-4.39,4.183,4.183,0,0,1,5.17,2.749A.408.408,0,0,0,2964.882,2489.432Z" fill="#86b1f2"/>
        <path id="Path_177733" data-name="Path 177733" d="M2872.6,2480.989l-4.25,5.475,9.155,1.609Z" fill="#96d9c9"/>
        <g id="Group_56072" data-name="Group 56072">
          <path id="Path_177734" data-name="Path 177734" d="M2904.074,2483.651l10.536,14.459,6.975-7.629Z" fill="#466eb6"/>
          <path id="Path_177735" data-name="Path 177735" d="M2922.53,2486.484l-.945,4-17.511-6.83Z" fill="#9bc1f9"/>
          <path id="Path_177736" data-name="Path 177736" d="M2921.585,2492.006l-17.511-8.356,16.276,14.459Z" fill="#9bc1f9"/>
          <path id="Path_177737" data-name="Path 177737" d="M2932.221,2509.334a17.969,17.969,0,0,1-7.107-2.758,12.31,12.31,0,0,1-5.382-7.376.473.473,0,0,1,.945-.009,11.639,11.639,0,0,0,4.936,6.583,17.414,17.414,0,0,0,6.7,2.62.472.472,0,0,1-.091.94Zm-11.544-10.139v0Z" fill="#f7cc7f"/>
          <path id="Path_177738" data-name="Path 177738" d="M2951.361,2513.611a49.217,49.217,0,0,1-15.521-5.99c-3.986-2.373-7.2-5.99-11.267-8a.472.472,0,0,1,.418-.847c4.209,2.079,7.4,5.692,11.332,8.033a48.284,48.284,0,0,0,15.224,5.876,29.488,29.488,0,0,0,6.93.43.472.472,0,0,1,.039.943A30.654,30.654,0,0,1,2951.361,2513.611Z" fill="#f7cc7f"/>
        </g>
        <g id="Group_56074" data-name="Group 56074">
          <path id="Path_177739" data-name="Path 177739" d="M2833.582,2548.855c.235-.016,2.016,2.857,3.13,7.266s3.487,12.546,3.487,12.546,3.852,7.774,4.893,8.816,2.051-.036,3.1.29a7.992,7.992,0,0,1,1.323.969s1.8,3.9,1.535,4.166a7.913,7.913,0,0,1-4.989.388c-1.938-.63-10.948-11.19-10.948-11.19S2827.769,2549.245,2833.582,2548.855Z" fill="#f48c7f"/>
          <path id="Path_177740" data-name="Path 177740" d="M2868.779,2552.362l-.872-.9s-1.6,2.87-3.439,6.939-4.045,9.083-4.8,9.834-7.072,9.444-8.985,10.292-1.321.476-2.858.292c-1.154-.138-1.028.7-.277,1.084a4.836,4.836,0,0,1,.893.5,21.244,21.244,0,0,1,2.27,2.107c.221.207-.242.587-.5.327s-1.179-1.676-1.561-1.676-.127.963.037,1.272-.2.218-.527-.545-.563-1.526-1.036-1.417c-.38.088-.147,1.142-.043,1.549-.109-.387-.411-1.349-.7-1.349-.364,0-.527.036-.527.753a2.548,2.548,0,0,0,1.09,2.12c.835.632,3.175.21,4.136-.173.657-.261,1.311-1.328,1.969-1.683a26.8,26.8,0,0,0,9.7-8.465,44.683,44.683,0,0,0,6.363-11.553Z" fill="#f4c0b8"/>
          <path id="Path_177741" data-name="Path 177741" d="M2867.084,2621.612a11.722,11.722,0,0,1,0-4.505c.484-2.471,3.1-15.065,3.1-17.681a26.272,26.272,0,0,1,1.259-6.442l-7.7-1.938-.775,7.508s-.411,17.511-1.114,18.214a11.085,11.085,0,0,1-4.6,1.74c-1.04,0-2.688.069-2.688.594a2.388,2.388,0,0,0,.145.863Z" fill="#f4c0b8"/>
          <path id="Path_177742" data-name="Path 177742" d="M2876.255,2591.879l.953,6.481s2.266,18.995,1.744,19.518a11.106,11.106,0,0,1-3.988,2.174c-1.09.121-2.624.857-2.624,1.439,0,1.174,12.255.221,12.255.221a3.316,3.316,0,0,0,0-2.159,13.605,13.605,0,0,1-.387-3.391c0-.29.024-.048.024-.508v-.606s1.477-9.058-.1-14.774l-.557-11.093Z" fill="#f4c0b8"/>
          <path id="Path_177743" data-name="Path 177743" d="M2825.292,2528.5a11.172,11.172,0,0,0-4.8,1.074c-1.955,1.1-2.48,3.734-2.516,5.791a11.667,11.667,0,0,0,2.48,7.413,10.88,10.88,0,0,0,4.578,3.025l8.214-5.236a10.7,10.7,0,0,0,.287-5.709C2832.849,2531.586,2833.03,2527.989,2825.292,2528.5Z" fill="#184655"/>
          <path id="Path_177744" data-name="Path 177744" d="M2839.134,2613.177s2.712,3.9,2.906,4.432,1.526,4.069,1.526,4.069l10.415-5.062-7.969-2.422-1.6-3.488Z" fill="#f48c7f"/>
          <path id="Path_177745" data-name="Path 177745" d="M2825.474,2585.572l8.5,17.729,5.595,11.19s4.965-1.913,6.2-3.149l-4.02-14.1-4.578-16.324-9.623-.875Z" fill="#355389"/>
          <path id="Path_177746" data-name="Path 177746" d="M2817.457,2614.976s.387,2.615.387,2.785-.581,2.688-.678,3.366a4.177,4.177,0,0,0,0,1.211l9.87-2.361s-1.465-.957-2.773-1.683-1.5-4.191-1.5-4.191Z" fill="#f48c7f"/>
          <path id="Path_177747" data-name="Path 177747" d="M2816.076,2580.922s1.691,10.634,1.453,14.193c-.34,5.109-1.7,7.072-.726,20.47h6.878a127.462,127.462,0,0,1,1.55-12.768c1.066-5.571,3.391-14.92,3.391-14.92l3.827-8.625Z" fill="#86b1f2"/>
          <path id="Path_177748" data-name="Path 177748" d="M2820.056,2540.941c.332,1.04,1.171,1.7,1.873,1.476s1-1.249.671-2.288-1.171-1.7-1.873-1.475S2819.724,2539.9,2820.056,2540.941Z" fill="#f48c7f"/>
          <path id="Path_177749" data-name="Path 177749" d="M2831.737,2538.723c.092,1.087.763,1.917,1.5,1.855s1.256-.994,1.163-2.081-.762-1.918-1.5-1.855S2831.644,2537.636,2831.737,2538.723Z" fill="#f48c7f"/>
          <g id="Group_56073" data-name="Group 56073">
            <path id="Path_177750" data-name="Path 177750" d="M2932.7,2542.049c1.555-1.683,4.827-8.686,5.934-10.676a5.621,5.621,0,0,1,.758-3.056c.615-1.2.772-3.652,1.439-3.12s-.3,2.672.315,2.544,2.907-4.454,3.512-3.972-1.819,4.417-1.272,4.3,2.384-3.957,3.238-3.275-2.553,4.307-2.1,4.672,2.551-1.978,3.239-1.429-3,3.057-2.679,2.99,2.62-.664,2.733-.191c.127.534-5.574,2.716-6.107,3.812h0c-1.011,2.964-2.786,8.36-5.131,11.087-2.87,3.336-11.126,12.587-11.126,12.587l-3.429-6.5S2930.853,2544.044,2932.7,2542.049Z" fill="#966259"/>
            <path id="Path_177751" data-name="Path 177751" d="M2941.374,2528.9a2.843,2.843,0,0,1,.08,3.161A4.674,4.674,0,0,0,2941.374,2528.9Z" fill="#6b4744"/>
          </g>
          <path id="Path_177752" data-name="Path 177752" d="M2816.725,2550.784s.8,20.619,0,24.47-1.166,6.35-1.166,6.35,11.048,2.152,21.656-.682a139.306,139.306,0,0,1-2.325-14.677c-.727-7.484-1.308-17.39-1.308-17.39a51.954,51.954,0,0,0-7.121-.016C2819.419,2549.484,2816.725,2550.784,2816.725,2550.784Z" fill="#fae0b2"/>
          <path id="Path_177753" data-name="Path 177753" d="M2823.294,2543.611l-.311,5.642a4.013,4.013,0,0,0,3.617,3.3c3.088.182,2.18-6.467,2.18-6.467l-.182-2.47Z" fill="#f48c7f"/>
          <path id="Path_177754" data-name="Path 177754" d="M2828.68,2547.861c.075,0,.149,0,.222-.005a16.647,16.647,0,0,0-.122-1.775l-.182-2.47h-5.3l-.047.847C2823.913,2545.59,2825.871,2547.861,2828.68,2547.861Z" fill="#f27a6a"/>
          <path id="Path_177755" data-name="Path 177755" d="M2817.354,2619.051s.363-.364,1.635-.255,7.647.818,7.92.818a19.937,19.937,0,0,1,4.084,3.272c.163.5-7.881.174-7.881.174h-6.124A6.183,6.183,0,0,1,2817.354,2619.051Z" fill="#3c8f7c"/>
          <path id="Path_177756" data-name="Path 177756" d="M2842.622,2618.917a.852.852,0,0,0-.373.59,15.064,15.064,0,0,0,.818,2.845,1.143,1.143,0,0,0,1.611.573l11.047-6.091s.8-.7-4.406-1.027Z" fill="#3c8f7c"/>
          <path id="Path_177757" data-name="Path 177757" d="M2816.725,2550.784a5.465,5.465,0,0,0-2.49,2.818c-.92,2.131-3.875,11.771-1.889,17.535a12.761,12.761,0,0,0,5.5,7.386c4.6,3,12.626,3.725,13.08,3.271a2.5,2.5,0,0,0,.473-1.747c0-.506,1.053-.76,1.053-1.45s-1.78-.812-3.827-.812c0,0-.363-.036.085-.375s1.017-.763.92-1.405-.514-.611-.908-.218-1.7,1.453-2.737,1.151-7.193-5.353-8.21-6.951C2817.772,2569.987,2818.178,2551.127,2816.725,2550.784Z" fill="#f48c7f"/>
          <path id="Path_177758" data-name="Path 177758" d="M2867.907,2551.458a21.3,21.3,0,0,1,6.835-2.252c3.52-.413,8.569.908,8.569.908l2.912,42.04s-13.078,6.212-22.887,0c0,0,2.634-17.652,2.634-20.134v-2.482Z" fill="#50bfa5"/>
          <path id="Path_177759" data-name="Path 177759" d="M2854.567,2619.468a.754.754,0,0,0-.8.5.9.9,0,0,0,.21,1.006c.52.521,9.609,2.01,12.782,1.94.337-.008.817-1.008.321-1.3C2866.308,2621.158,2856.964,2619.739,2854.567,2619.468Z" fill="#13375b"/>
          <path id="Path_177760" data-name="Path 177760" d="M2857.25,2618.508l.751,1.529,1.671.461s-.775-2.737-1.453-2.616A1.451,1.451,0,0,0,2857.25,2618.508Z" fill="#13375b"/>
          <path id="Path_177761" data-name="Path 177761" d="M2872.338,2621.589a.737.737,0,0,0-.7.5.677.677,0,0,0,.076.706c.387.387,13.4.121,13.4.121s.315-.968-.251-1.163C2884.486,2621.628,2874.6,2621.595,2872.338,2621.589Z" fill="#13375b"/>
          <path id="Path_177762" data-name="Path 177762" d="M2876.261,2619.5c-.117-.212-1.015.013-1.3.548l1.154,1.658,1.357,0Z" fill="#13375b"/>
          <path id="Path_177763" data-name="Path 177763" d="M2905.232,2611.1a33.144,33.144,0,0,1-1.376,6.54c-.852,1.986-3.661,3.24-6.132,3.727s-1.647.876-1.285,1.238,11.07.606,12.959.264c0,0-.726-3.728-.726-4.309s2.954-9.736,2.954-9.736Z" fill="#966259"/>
          <path id="Path_177764" data-name="Path 177764" d="M2909.4,2622.869s-.148-.759-.31-1.645c-2.066.277-6.792-.206-9.16-.483a14.827,14.827,0,0,1-2.331.5c-2.47.487-2.284,1.135-1.665,1.585C2896.346,2623.127,2907.509,2623.211,2909.4,2622.869Z" fill="#f47458"/>
          <path id="Path_177765" data-name="Path 177765" d="M2926.3,2610.034s-.29,5.595.31,7.606c.618,2.071,1.5,2.426,3.928,3.1,2.382.662,1.478,1.723,1.116,2.084s-8.7.386-10.586.044c0,0,.726-3.728.726-4.309s-.882-9.991-.882-9.991Z" fill="#966259"/>
          <path id="Path_177766" data-name="Path 177766" d="M2921.069,2622.869s.148-.759.31-1.645c2.066.277,6.792-.206,9.16-.483a19.674,19.674,0,0,1,2.2.626c2.365.864,2.154,1.1,1.792,1.458S2922.958,2623.211,2921.069,2622.869Z" fill="#f47458"/>
          <path id="Path_177767" data-name="Path 177767" d="M2883.311,2550.114s-2.833,3.342-1.38,8.937,4.965,14.508,9.3,19.469a24.662,24.662,0,0,0,3.052,2.983,15.441,15.441,0,0,0,3.8.824s1.356-4.166.968-4.554-3.645-.423-4.529-1.308S2885.055,2550.114,2883.311,2550.114Z" fill="#f4c0b8"/>
          <path id="Path_177768" data-name="Path 177768" d="M2910.721,2550.041a4.167,4.167,0,0,0-1.4,2.011c-.582,1.5-3.6,13.853-4.033,15.646-.337,1.384-3.4,5.448-4.912,7.405-.448.577-.792,1.06-1.01,1.06-1.332,0-3.543.739-3.543,1.291s.522.61,1.394.416.212.751-.1,1.066-1.656,2.11-1.181,2.585a3.852,3.852,0,0,0,2.15.806,2.977,2.977,0,0,0,1.95-.908c.9-.737,2.231-2.244,3.205-3.113,3.5-3.124,6.386-9.688,6.918-11.19S2910.721,2550.041,2910.721,2550.041Z" fill="#966259"/>
          <path id="Path_177769" data-name="Path 177769" d="M2899.5,2579.287s.363.036.363.745a4.069,4.069,0,0,1-1.036,2.216c-.417.418-4.243-.6-4.243-.6s1.391.035,1.867-.555c.213-.264.614-1.5,1.014-1.5s-.036,1.671-.036,1.671.763-2.2,1.162-2.2.436.4.255,1.072S2899.251,2579.093,2899.5,2579.287Z" fill="#f4c0b8"/>
          <path id="Path_177770" data-name="Path 177770" d="M2902.57,2611.553a52.312,52.312,0,0,0,12.1,1.526c6.43,0,19.072-3.27,19.072-3.27a92.131,92.131,0,0,1-4.686-14.894c-1.2-6.467-2.071-17.583-2.071-17.583H2907.8l-1.2,7.7Z" fill="#466eb6"/>
          <path id="Path_177771" data-name="Path 177771" d="M2910.721,2550.041s-1.252,1.453-1.252,5.958a133.423,133.423,0,0,1-.581,13.588c-.364,2.325-1.453,8.1-1.453,8.1s3.2,2.653,11.48,1.926,8.719-1.841,8.719-1.841-1.162-18.722-1.162-20.684-1.778-7.637-1.778-7.637a56.9,56.9,0,0,0-6.966-.326C2915.548,2549.293,2910.721,2550.041,2910.721,2550.041Z" fill="#fae0b2"/>
          <path id="Path_177772" data-name="Path 177772" d="M2906.957,2532.359a4.451,4.451,0,0,0-3.2,4.566c.266,3.3,1.889,3.133,1.889,3.133s-1.187,4.677,2.4,6.034c3.38,1.278,4.651,0,4.651,0s1.466,3.884,6.48,2.384,4.564-4.54,4.564-4.54,2.136.84,4.607-3.084,1.061-6.749-2.209-8.493c0,0,1.088-5-3.911-5.795s-6.225,1.944-6.225,1.944-.89-3.062-6.213-.955A4.367,4.367,0,0,0,2906.957,2532.359Z" fill="#13375b"/>
          <path id="Path_177773" data-name="Path 177773" d="M2920.768,2539.847c-.368,1.027-.1,2.061.59,2.31s1.556-.382,1.924-1.409.1-2.061-.591-2.31S2921.136,2538.82,2920.768,2539.847Z" fill="#966259"/>
          <path id="Path_177774" data-name="Path 177774" d="M2909.4,2540.866c.168,1.078.9,1.86,1.623,1.746s1.183-1.079,1.015-2.157-.9-1.86-1.623-1.746S2909.234,2539.788,2909.4,2540.866Z" fill="#966259"/>
          <path id="Path_177775" data-name="Path 177775" d="M2915.379,2545.585l.194,4.238a2.039,2.039,0,0,0,1.816,1.865,2.884,2.884,0,0,0,3.294-2.446c0-.17-.848-5.982-.848-5.982Z" fill="#966259"/>
          <path id="Path_177776" data-name="Path 177776" d="M2919.835,2543.26l-4.456,2.325.069,1.507a5.8,5.8,0,0,0,2.958-.629,3.793,3.793,0,0,0,1.614-1.931C2919.913,2543.789,2919.835,2543.26,2919.835,2543.26Z" fill="#6b4744"/>
          <path id="Path_177777" data-name="Path 177777" d="M2847.552,2578.7s1.085.7,1.73.548.327-.484.024-.787a5.537,5.537,0,0,0-1.114-.691Z" fill="#f48c7f"/>
          <path id="Path_177778" data-name="Path 177778" d="M2826.095,2531.458a5.829,5.829,0,0,0-3.981,3.027c-1.853,3.015-.346,7.455.163,8.472s2.543,3.633,5.558,3.633,5.123-2.761,5.377-5.45c.34-3.6-.623-8.085-4.049-9.336A6.441,6.441,0,0,0,2826.095,2531.458Z" fill="#f48c7f"/>
          <path id="Path_177779" data-name="Path 177779" d="M2874.628,2531.549a7.266,7.266,0,0,0-3.16.727c-1.672.8-3.415,4.393-3.415,7.59,0,1.945-.862,2.749-1.536,3.079a.609.609,0,0,0-.193.95,9.6,9.6,0,0,0,2.21,2.075c3.278,1.908,6.58,1.966,10.264,1.29a14.427,14.427,0,0,0,7.864-4.065.867.867,0,0,0-.215-1.362,3.81,3.81,0,0,1-1.828-2.909C2884.038,2535.691,2882.839,2529.987,2874.628,2531.549Z" fill="#13375b"/>
          <path id="Path_177780" data-name="Path 177780" d="M2879.07,2540.371c-.237,1.065.155,2.058.875,2.218s1.495-.574,1.732-1.639-.155-2.058-.875-2.218S2879.307,2539.306,2879.07,2540.371Z" fill="#f4c0b8"/>
          <path id="Path_177781" data-name="Path 177781" d="M2868.42,2538.951c0,1.09.6,1.975,1.335,1.975s1.336-.885,1.336-1.975-.6-1.976-1.336-1.976S2868.42,2537.86,2868.42,2538.951Z" fill="#f4c0b8"/>
          <path id="Path_177782" data-name="Path 177782" d="M2872.945,2545.972l-.363,4.99a1.772,1.772,0,0,0,1.526,1.38c1.356.242,4.238-1.768,4.238-2.834l-.678-5.764Z" fill="#f4c0b8"/>
          <path id="Path_177783" data-name="Path 177783" d="M2872.768,2548.406a5.78,5.78,0,0,0,5.141-2.617l-.241-2.045-4.723,2.228Z" fill="#f7a491"/>
          <path id="Path_177784" data-name="Path 177784" d="M2869.615,2541.5c.327,1.853.872,5.113,3.778,5.449s5.086-1.235,6.467-4.069a11.549,11.549,0,0,0,.291-8.428c-.607-1.473-3.223-1.4-4.509-1.38C2871.335,2533.148,2868.891,2537.4,2869.615,2541.5Z" fill="#f4c0b8"/>
          <path id="Path_177785" data-name="Path 177785" d="M2873.866,2532.482a6.53,6.53,0,0,0,1.937,4.365c1.983,1.983,5.97,3.019,5.97,3.019l.473,1.119s.629-3.562-.872-5.936S2873.866,2532.482,2873.866,2532.482Z" fill="#13375b"/>
          <path id="Path_177786" data-name="Path 177786" d="M2917.669,2531.845a6.348,6.348,0,0,1,3.373,2.731c1.263,2.13,2.025,8.245-2.351,10.856s-7.3-1.581-7.608-5.481C2910.721,2535.34,2912.733,2531.061,2917.669,2531.845Z" fill="#966259"/>
        </g>
      </g>
    </g>
  </g>
</svg>
